<?xml version="1.0" encoding="UTF-8"?>
<svg version="1.1" xmlns="http://www.w3.org/2000/svg" width="640" height="641">
<path d="M0 0 C211.2 0 422.4 0 640 0 C640 211.53 640 423.06 640 641 C428.8 641 217.6 641 0 641 C0 429.47 0 217.94 0 0 Z " fill="#EAA3BB" transform="translate(0,0)"/>
<path d="M0 0 C1.52173828 -0.01063477 1.52173828 -0.01063477 3.07421875 -0.02148438 C12.44976551 0.05859585 12.44976551 0.05859585 16.25 3.4375 C16.25 4.0975 16.25 4.7575 16.25 5.4375 C16.9925 5.64375 17.735 5.85 18.5 6.0625 C22.07371889 7.84935945 23.31522496 9.99789993 25.25 13.4375 C25.25 14.0975 25.25 14.7575 25.25 15.4375 C25.91 15.4375 26.57 15.4375 27.25 15.4375 C29.03071156 20.03631823 29.50265981 23.86509035 29.50878906 28.78466797 C29.51404602 29.84935303 29.51404602 29.84935303 29.51940918 30.93554688 C29.52816527 33.26702849 29.5223979 35.59820313 29.515625 37.9296875 C29.51697371 39.56104592 29.51891596 41.19240394 29.52142334 42.82376099 C29.52436657 46.23817787 29.5201039 49.65248987 29.51074219 53.06689453 C29.49936626 57.4267204 29.50590038 61.78629949 29.51788712 66.14611626 C29.52514288 69.51431102 29.52280047 72.8824481 29.51763153 76.25064468 C29.51630436 77.85728103 29.51790982 79.46392275 29.52259064 81.07055283 C29.52771525 83.32435552 29.51986256 85.57776897 29.50878906 87.83154297 C29.50719788 89.1102829 29.50560669 90.38902283 29.50396729 91.70651245 C28.81175012 101.87574988 28.81175012 101.87574988 25.25 105.4375 C24.50164788 107.33170384 24.50164788 107.33170384 24 109.4375 C23.80921875 110.13875 23.6184375 110.84 23.421875 111.5625 C23.36515625 112.18125 23.3084375 112.8 23.25 113.4375 C25.09595486 115.50197 25.09595486 115.50197 27.3125 116.4375 C29.25 117.4375 29.25 117.4375 30.25 119.4375 C29.59 119.4375 28.93 119.4375 28.25 119.4375 C28.25 120.4275 28.25 121.4175 28.25 122.4375 C36.83 122.4375 45.41 122.4375 54.25 122.4375 C54.25 121.7775 54.25 121.1175 54.25 120.4375 C55.24 120.4375 56.23 120.4375 57.25 120.4375 C57.25 119.7775 57.25 119.1175 57.25 118.4375 C48.67 118.4375 40.09 118.4375 31.25 118.4375 C31.25 79.8275 31.25 41.2175 31.25 1.4375 C43.79 1.4375 56.33 1.4375 69.25 1.4375 C69.25 22.5575 69.25 43.6775 69.25 65.4375 C69.91 65.4375 70.57 65.4375 71.25 65.4375 C71.25 44.3175 71.25 23.1975 71.25 1.4375 C83.79 1.4375 96.33 1.4375 109.25 1.4375 C109.25 40.0475 109.25 78.6575 109.25 118.4375 C96.875 118.9325 96.875 118.9325 84.25 119.4375 C84.25 120.4275 84.25 121.4175 84.25 122.4375 C85.33667969 122.38529297 85.33667969 122.38529297 86.4453125 122.33203125 C93.91187335 122.12296755 98.20855114 122.81079417 104 127.8125 C109.21536347 133.89709072 108.41887797 139.75355227 108.25 147.4375 C102.31 147.4375 96.37 147.4375 90.25 147.4375 C90.25 144.4675 90.25 141.4975 90.25 138.4375 C89.59 138.4375 88.93 138.4375 88.25 138.4375 C88.58 142.3975 88.91 146.3575 89.25 150.4375 C90.9 151.0975 92.55 151.7575 94.25 152.4375 C99.57229823 154.99543423 104.01242537 157.31134017 107.25 162.4375 C108.65835168 166.66255504 108.59478626 170.69711986 108.6875 175.125 C108.75614258 176.43500977 108.75614258 176.43500977 108.82617188 177.77148438 C108.93051049 183.84580632 107.69915153 187.18685574 103.80957031 191.86083984 C99.35241904 196.36683279 94.67457763 197.60112059 88.5 197.75 C82.71654739 197.67325937 79.7454568 197.10726065 75.25 193.4375 C72.22842185 189.58755186 70.44094594 186.20128378 69.25 181.4375 C68.92 186.3875 68.59 191.3375 68.25 196.4375 C41.58333333 196.4375 14.91666667 196.4375 -11.75 196.4375 C-11.60575791 193.87490121 -11.46002371 191.31241084 -11.3125 188.75 C-11.26738281 187.96616943 -11.22226562 187.18233887 -11.17578125 186.37475586 C-10.92293019 182.07672676 -10.62326158 177.7895458 -10.25 173.5 C-9.35970274 162.50553544 -9.13378742 151.45873934 -8.75 140.4375 C-11.39 140.4375 -14.03 140.4375 -16.75 140.4375 C-16.75 158.9175 -16.75 177.3975 -16.75 196.4375 C-23.02 196.4375 -29.29 196.4375 -35.75 196.4375 C-36.75 195.4375 -36.75 195.4375 -36.87025452 193.22923279 C-36.86803391 192.25438431 -36.86581329 191.27953583 -36.86352539 190.27514648 C-36.86344986 189.17408066 -36.86337433 188.07301483 -36.86329651 186.93858337 C-36.85813522 185.7406868 -36.85297394 184.54279022 -36.84765625 183.30859375 C-36.84553383 181.47954247 -36.84553383 181.47954247 -36.84336853 179.61354065 C-36.83774967 175.7006693 -36.82519396 171.78785419 -36.8125 167.875 C-36.80748743 165.22981853 -36.8029241 162.58463617 -36.79882812 159.93945312 C-36.78777411 153.43878274 -36.77101764 146.93814539 -36.75 140.4375 C-39.72 140.4375 -42.69 140.4375 -45.75 140.4375 C-45.75 143.0775 -45.75 145.7175 -45.75 148.4375 C-52.02 148.4375 -58.29 148.4375 -64.75 148.4375 C-64.75 145.1375 -64.75 141.8375 -64.75 138.4375 C-65.41 138.4375 -66.07 138.4375 -66.75 138.4375 C-67.19524003 142.40816517 -67.1134188 145.6568845 -65.75 149.4375 C-62.65119251 151.99738445 -59.46455142 153.78069113 -55.9375 155.66796875 C-51.97250094 157.86912632 -50.08937948 159.59423371 -47.75 163.4375 C-46.65364912 168.24729741 -46.62990266 172.91229536 -46.6875 177.8125 C-46.69201172 178.54855469 -46.69652344 179.28460938 -46.70117188 180.04296875 C-46.71284858 181.84118158 -46.73077989 183.63935197 -46.75 185.4375 C-47.41 185.4375 -48.07 185.4375 -48.75 185.4375 C-48.70875 186.30375 -48.6675 187.17 -48.625 188.0625 C-50.17576423 192.71479268 -52.57556221 194.00086204 -56.7890625 196.30078125 C-62.83890522 198.6233462 -69.49899108 198.51166536 -75.625 196.375 C-80.38174778 193.42581638 -83.93572824 190.05480208 -85.625 184.625 C-85.79767291 180.22184084 -85.80955106 175.84427809 -85.75 171.4375 C-79.48 171.4375 -73.21 171.4375 -66.75 171.4375 C-66.75 174.7375 -66.75 178.0375 -66.75 181.4375 C-66.09 181.4375 -65.43 181.4375 -64.75 181.4375 C-64.89095064 179.8120692 -65.03792087 178.18715949 -65.1875 176.5625 C-65.30931641 175.20511719 -65.30931641 175.20511719 -65.43359375 173.8203125 C-65.61989285 171.42639139 -65.61989285 171.42639139 -66.75 169.4375 C-69.05965848 168.38397157 -71.3929774 167.38030904 -73.75 166.4375 C-73.75 165.7775 -73.75 165.1175 -73.75 164.4375 C-74.8328125 164.0971875 -74.8328125 164.0971875 -75.9375 163.75 C-80.26786879 161.72916123 -83.03056556 159.17113717 -84.875 154.7265625 C-87.1338176 146.23582849 -87.06448928 136.2035807 -82.75 128.4375 C-78.10754308 123.5739737 -74.28032486 122.3398666 -67.75 119.4375 C-80.62 118.9425 -80.62 118.9425 -93.75 118.4375 C-93.42 119.7575 -93.09 121.0775 -92.75 122.4375 C-96.215 122.9325 -96.215 122.9325 -99.75 123.4375 C-99.75 122.4475 -99.75 121.4575 -99.75 120.4375 C-102.92509982 119.37913339 -105.39282383 119.23506211 -108.73046875 119.12109375 C-109.89384766 119.07919922 -111.05722656 119.03730469 -112.25585938 118.99414062 C-113.47080078 118.95482422 -114.68574219 118.91550781 -115.9375 118.875 C-117.16404297 118.83181641 -118.39058594 118.78863281 -119.65429688 118.74414062 C-122.68608381 118.6379691 -125.71795315 118.53592048 -128.75 118.4375 C-128.86069824 117.51114746 -128.97139648 116.58479492 -129.08544922 115.63037109 C-129.5054068 112.12256726 -129.92680839 108.61494266 -130.34912109 105.10742188 C-130.53001915 103.60260622 -130.71037672 102.09772547 -130.89013672 100.59277344 C-131.79414691 93.02736975 -132.72628509 85.47504994 -133.84375 77.9375 C-134.61537449 72.6425595 -135.136623 67.40611775 -135.375 62.0625 C-135.41367187 61.31484375 -135.45234375 60.5671875 -135.4921875 59.796875 C-135.58378632 58.010698 -135.66780616 56.22413449 -135.75 54.4375 C-136.41 54.4375 -137.07 54.4375 -137.75 54.4375 C-137.67483154 55.04819336 -137.59966309 55.65888672 -137.5222168 56.28808594 C-135.96895683 68.95367065 -134.48418435 81.62450981 -133.125 94.3125 C-133.00213623 95.45686523 -132.87927246 96.60123047 -132.75268555 97.78027344 C-132.022021 104.66292196 -131.37682065 111.54247283 -130.75 118.4375 C-143.125 118.9325 -143.125 118.9325 -155.75 119.4375 C-155.75 120.0975 -155.75 120.7575 -155.75 121.4375 C-155.09 121.4375 -154.43 121.4375 -153.75 121.4375 C-153.75 127.3775 -153.75 133.3175 -153.75 139.4375 C-156.39 139.4375 -159.03 139.4375 -161.75 139.4375 C-161.75 142.7375 -161.75 146.0375 -161.75 149.4375 C-159.11 149.4375 -156.47 149.4375 -153.75 149.4375 C-153.75 155.0475 -153.75 160.6575 -153.75 166.4375 C-156.39 166.4375 -159.03 166.4375 -161.75 166.4375 C-161.75 170.7275 -161.75 175.0175 -161.75 179.4375 C-159.11 179.4375 -156.47 179.4375 -153.75 179.4375 C-153.75 185.0475 -153.75 190.6575 -153.75 196.4375 C-162.99 196.4375 -172.23 196.4375 -181.75 196.4375 C-182.245 191.9825 -182.245 191.9825 -182.75 187.4375 C-183.41 187.4375 -184.07 187.4375 -184.75 187.4375 C-184.83378906 188.04207031 -184.91757813 188.64664063 -185.00390625 189.26953125 C-185.97436714 192.08945687 -187.13307507 192.6607094 -189.6875 194.125 C-190.39777344 194.54136719 -191.10804688 194.95773437 -191.83984375 195.38671875 C-197.38619446 198.43777875 -203.74283329 198.22307765 -209.921875 197.01171875 C-214.70977114 195.28511019 -217.4598062 191.81736371 -219.75 187.4375 C-219.75 186.7775 -219.75 186.1175 -219.75 185.4375 C-220.41 185.7675 -221.07 186.0975 -221.75 186.4375 C-222.08 187.4275 -222.41 188.4175 -222.75 189.4375 C-223.74 189.4375 -224.73 189.4375 -225.75 189.4375 C-225.95625 190.035625 -226.1625 190.63375 -226.375 191.25 C-228.32059393 194.34526307 -230.39264819 195.05068257 -233.75 196.4375 C-240.67646181 197.17706481 -248.32139921 197.37229601 -254.75 194.4375 C-259.21182828 190.21685162 -260.57755805 185.42467008 -260.92218018 179.4548645 C-260.98141908 175.77160794 -260.97460325 172.09377562 -260.9453125 168.41015625 C-260.94157681 167.05252797 -260.93873247 165.69489697 -260.93673706 164.33726501 C-260.92914431 160.78462118 -260.90953397 157.23214397 -260.8873291 153.67956543 C-260.86677613 150.0461655 -260.85771524 146.41273833 -260.84765625 142.77929688 C-260.82628339 135.66529691 -260.79220087 128.5514094 -260.75 121.4375 C-261.74 121.4375 -262.73 121.4375 -263.75 121.4375 C-263.42 120.4475 -263.09 119.4575 -262.75 118.4375 C-262.65840313 115.53128396 -262.62403828 112.6494855 -262.63647461 109.7434082 C-262.63632858 108.8553952 -262.63618256 107.9673822 -262.6360321 107.05245972 C-262.63672932 104.11437546 -262.64451282 101.17635444 -262.65234375 98.23828125 C-262.65420861 96.20232681 -262.65563219 94.16637192 -262.65663147 92.13041687 C-262.66045131 86.76938643 -262.67027708 81.40838303 -262.68133545 76.04736328 C-262.69156101 70.5778032 -262.69613155 65.10823876 -262.70117188 59.63867188 C-262.71189979 48.90493603 -262.72896985 38.17122026 -262.75 27.4375 C-267.7 27.4375 -272.65 27.4375 -277.75 27.4375 C-277.7768245 23.29162418 -277.79675315 19.14591962 -277.8125 15 C-277.82087891 13.81599609 -277.82925781 12.63199219 -277.83789062 11.41210938 C-277.84111328 10.28740234 -277.84433594 9.16269531 -277.84765625 8.00390625 C-277.85289307 6.96177979 -277.85812988 5.91965332 -277.86352539 4.84594727 C-277.75 2.4375 -277.75 2.4375 -276.75 1.4375 C-274.94490627 1.33850439 -273.13593072 1.30950849 -271.328125 1.30810547 C-270.17022461 1.30495331 -269.01232422 1.30180115 -267.81933594 1.29855347 C-266.55895508 1.3005777 -265.29857422 1.30260193 -264 1.3046875 C-262.71641602 1.30373077 -261.43283203 1.30277405 -260.11035156 1.30178833 C-257.38996176 1.30031169 -254.66960475 1.30246481 -251.94921875 1.30712891 C-248.45515331 1.31282619 -244.96116467 1.30954701 -241.46710205 1.30355644 C-238.14472847 1.29908246 -234.82237577 1.30221115 -231.5 1.3046875 C-230.23961914 1.30266327 -228.97923828 1.30063904 -227.68066406 1.29855347 C-226.52276367 1.30170563 -225.36486328 1.30485779 -224.171875 1.30810547 C-223.14674805 1.30890106 -222.12162109 1.30969666 -221.06542969 1.31051636 C-218.75 1.4375 -218.75 1.4375 -217.75 2.4375 C-217.29234333 5.42639359 -217.04679049 8.42719648 -216.75 11.4375 C-216.42 8.1375 -216.09 4.8375 -215.75 1.4375 C-200.24 1.4375 -184.73 1.4375 -168.75 1.4375 C-166.71840235 34.62026164 -166.71840235 34.62026164 -166.25 49.4375 C-165.95183772 58.62242018 -165.44590926 67.77384808 -164.75 76.9375 C-164.6252832 78.60425781 -164.6252832 78.60425781 -164.49804688 80.3046875 C-164.08904324 85.95968569 -164.08904324 85.95968569 -162.75 91.4375 C-162.73969254 90.32472183 -162.72938507 89.21194366 -162.71876526 88.06544495 C-162.62120754 77.60252082 -162.51849067 67.13965852 -162.41066074 56.67683506 C-162.35538561 51.29719196 -162.30195842 45.91754348 -162.25268555 40.5378418 C-162.20510952 35.35070329 -162.15276944 30.16363315 -162.09705925 24.97657585 C-162.07660495 22.99295684 -162.05789708 21.00931906 -162.04092598 19.02566719 C-162.01694977 16.25735784 -161.98688636 13.48917898 -161.95532227 10.72094727 C-161.9495668 9.89232681 -161.94381134 9.06370636 -161.93788147 8.2099762 C-161.86405216 2.55155216 -161.86405216 2.55155216 -160.75 1.4375 C-158.3743148 1.3491033 -156.02791326 1.32219695 -153.65234375 1.33984375 C-152.58905602 1.34196617 -152.58905602 1.34196617 -151.50428772 1.34413147 C-149.23198288 1.34974557 -146.95977525 1.36230037 -144.6875 1.375 C-143.15039204 1.38001319 -141.61328255 1.38457641 -140.07617188 1.38867188 C-136.30074358 1.39971958 -132.52538829 1.41699359 -128.75 1.4375 C-128.42792867 4.21480047 -128.10622352 6.99214274 -127.78491211 9.76953125 C-127.51012499 12.14458228 -127.23489229 14.51958181 -126.95922852 16.89453125 C-126.34523321 22.20117922 -125.73517503 27.50759996 -125.17578125 32.8203125 C-124.44834666 39.71183529 -123.63296126 46.47204903 -122.125 53.24609375 C-121.48394312 56.9922699 -121.62772151 60.64686668 -121.75 64.4375 C-121.09 64.4375 -120.43 64.4375 -119.75 64.4375 C-120.79461357 49.12689507 -122.709705 34.04459248 -125.07299805 18.89111328 C-125.18293594 18.1771489 -125.29287384 17.46318451 -125.40614319 16.72758484 C-125.70747179 14.77598743 -126.01490695 12.82533567 -126.32275391 10.87475586 C-126.71940427 7.68364703 -126.83057265 4.64841222 -126.75 1.4375 C-116.08333333 1.4375 -105.41666667 1.4375 -94.75 1.4375 C-93.13363647 1.41393433 -93.13363647 1.41393433 -91.48461914 1.38989258 C-87.73974232 1.33536916 -83.99491556 1.30104029 -80.24975586 1.27270508 C-78.640971 1.2577179 -77.03222629 1.23732105 -75.42358398 1.21118164 C-61.7986881 0.99580721 -49.14384082 1.38015043 -38.75 11.4375 C-35.6050739 16.04155847 -33.75 19.82655209 -33.75 25.4375 C-33.09 25.4375 -32.43 25.4375 -31.75 25.4375 C-31.688125 24.2825 -31.62625 23.1275 -31.5625 21.9375 C-30.66790783 14.81856231 -26.2126243 8.90691988 -20.75 4.4375 C-13.94193031 0.40933136 -7.78863659 -0.15577273 0 0 Z " fill="#E59EB9" transform="translate(435.75,212.5625)"/>
<path d="M0 0 C1.15790039 -0.00315216 2.31580078 -0.00630432 3.50878906 -0.009552 C4.76916992 -0.00752777 6.02955078 -0.00550354 7.328125 -0.00341797 C8.61170898 -0.00437469 9.89529297 -0.00533142 11.21777344 -0.00631714 C13.93816324 -0.00779378 16.65852025 -0.00564066 19.37890625 -0.00097656 C22.87297169 0.00472073 26.36696033 0.00144154 29.86102295 -0.00454903 C33.18339653 -0.00902301 36.50574923 -0.00589432 39.828125 -0.00341797 C41.08850586 -0.0054422 42.34888672 -0.00746643 43.64746094 -0.009552 C44.80536133 -0.00639984 45.96326172 -0.00324768 47.15625 0 C48.18137695 0.00079559 49.20650391 0.00159119 50.26269531 0.00241089 C52.578125 0.12939453 52.578125 0.12939453 53.578125 1.12939453 C54.03578167 4.11828812 54.28133451 7.11909102 54.578125 10.12939453 C54.908125 6.82939453 55.238125 3.52939453 55.578125 0.12939453 C71.088125 0.12939453 86.598125 0.12939453 102.578125 0.12939453 C104.60064325 33.16385922 104.60064325 33.16385922 105.015625 47.44189453 C105.38838389 59.92453847 106.41271502 72.33392497 107.56225586 84.76538086 C108.50549457 95.26415272 108.69837281 105.58418478 108.578125 116.12939453 C99.008125 116.12939453 89.438125 116.12939453 79.578125 116.12939453 C79.578125 108.20939453 79.578125 100.28939453 79.578125 92.12939453 C78.918125 92.12939453 78.258125 92.12939453 77.578125 92.12939453 C77.578125 100.04939453 77.578125 107.96939453 77.578125 116.12939453 C67.678125 116.12939453 57.778125 116.12939453 47.578125 116.12939453 C47.578125 108.19901686 47.63368911 100.68247665 48.41796875 92.85986328 C48.59537071 90.97331429 48.77269547 89.08675805 48.94995117 87.20019531 C49.04263275 86.23760803 49.13531433 85.27502075 49.23080444 84.28326416 C50.76210902 68.33492303 52.1732335 52.44184766 52.4362793 36.41308594 C52.6295662 33.30120013 53.13718979 30.21594102 53.578125 27.12939453 C48.628125 27.12939453 43.678125 27.12939453 38.578125 27.12939453 C38.578125 56.49939453 38.578125 85.86939453 38.578125 116.12939453 C28.678125 116.12939453 18.778125 116.12939453 8.578125 116.12939453 C8.578125 86.42939453 8.578125 56.72939453 8.578125 26.12939453 C3.628125 26.12939453 -1.321875 26.12939453 -6.421875 26.12939453 C-6.4486995 21.98351871 -6.46862815 17.83781415 -6.484375 13.69189453 C-6.49275391 12.50789062 -6.50113281 11.32388672 -6.50976562 10.10400391 C-6.51298828 8.97929687 -6.51621094 7.85458984 -6.51953125 6.69580078 C-6.52476807 5.65367432 -6.53000488 4.61154785 -6.53540039 3.5378418 C-6.32353636 -0.95686509 -3.93990492 0.00305773 0 0 Z " fill="#51052A" transform="translate(164.421875,213.87060546875)"/>
<path d="M0 0 C0.33 0 0.66 0 1 0 C1 37.95 1 75.9 1 115 C10.57 115 20.14 115 30 115 C30 113.35 30 111.7 30 110 C30.33 110 30.66 110 31 110 C31 111.98 31 113.96 31 116 C18.625 116.495 18.625 116.495 6 117 C6 117.66 6 118.32 6 119 C6.66 119 7.32 119 8 119 C8 124.94 8 130.88 8 137 C5.36 137 2.72 137 0 137 C0 140.3 0 143.6 0 147 C2.64 147 5.28 147 8 147 C8 152.61 8 158.22 8 164 C5.36 164 2.72 164 0 164 C0 168.29 0 172.58 0 177 C2.64 177 5.28 177 8 177 C8 182.61 8 188.22 8 194 C-1.24 194 -10.48 194 -20 194 C-20.495 189.545 -20.495 189.545 -21 185 C-21.66 185 -22.32 185 -23 185 C-23.08378906 185.60457031 -23.16757813 186.20914063 -23.25390625 186.83203125 C-24.22436714 189.65195687 -25.38307507 190.2232094 -27.9375 191.6875 C-28.64777344 192.10386719 -29.35804688 192.52023437 -30.08984375 192.94921875 C-35.63619446 196.00027875 -41.99283329 195.78557765 -48.171875 194.57421875 C-52.95977114 192.84761019 -55.7098062 189.37986371 -58 185 C-58 184.34 -58 183.68 -58 183 C-58.66 183.33 -59.32 183.66 -60 184 C-60.33 184.99 -60.66 185.98 -61 187 C-61.99 187 -62.98 187 -64 187 C-64.20625 187.598125 -64.4125 188.19625 -64.625 188.8125 C-66.57059393 191.90776307 -68.64264819 192.61318257 -72 194 C-78.92646181 194.73956481 -86.57139921 194.93479601 -93 192 C-97.46182828 187.77935162 -98.82755805 182.98717008 -99.17218018 177.0173645 C-99.23141908 173.33410794 -99.22460325 169.65627562 -99.1953125 165.97265625 C-99.19157681 164.61502797 -99.18873247 163.25739697 -99.18673706 161.89976501 C-99.17914431 158.34712118 -99.15953397 154.79464397 -99.1373291 151.24206543 C-99.11677613 147.6086655 -99.10771524 143.97523833 -99.09765625 140.34179688 C-99.07628339 133.22779691 -99.04220087 126.1139094 -99 119 C-99.99 119 -100.98 119 -102 119 C-101.67 117.68 -101.34 116.36 -101 115 C-91.1 115 -81.2 115 -71 115 C-71 85.63 -71 56.26 -71 26 C-66.05 26 -61.1 26 -56 26 C-56.1878807 46.73519741 -57.73801495 67.29113357 -59.5625 87.9375 C-59.62143307 88.60451683 -59.68036613 89.27153366 -59.74108505 89.95876312 C-60.48000844 98.30717407 -61.23817167 106.65362244 -62 115 C-52.1 115 -42.2 115 -32 115 C-32 107.08 -32 99.16 -32 91 C-31.34 91 -30.68 91 -30 91 C-30 98.92 -30 106.84 -30 115 C-20.43 115 -10.86 115 -1 115 C-1.495 102.13 -1.495 102.13 -2 89 C-1.67 89 -1.34 89 -1 89 C-0.67 59.63 -0.34 30.26 0 0 Z " fill="#E9A3BC" transform="translate(274,215)"/>
<path d="M0 0 C12.54 0 25.08 0 38 0 C38 38.28 38 76.56 38 116 C29.09 116 20.18 116 11 116 C11 107.52687449 11.11725727 99.22507002 11.65625 90.79296875 C11.72283813 89.70156082 11.78942627 88.61015289 11.85803223 87.485672 C12.06832212 84.052708 12.28405773 80.62011259 12.5 77.1875 C12.64489417 74.83791298 12.78942851 72.48830374 12.93359375 70.13867188 C13.28491121 64.42551827 13.64068139 58.71265567 14 53 C13.01 53 12.02 53 11 53 C11.05220703 54.63001953 11.05220703 54.63001953 11.10546875 56.29296875 C11.36170114 68.78462973 10.58692116 81.12267004 9.5625 93.5625 C9.49501556 94.39316986 9.42753113 95.22383972 9.35800171 96.0796814 C9.16175006 98.47155548 8.95942041 100.86281163 8.75390625 103.25390625 C8.69343109 103.97605316 8.63295593 104.69820007 8.57064819 105.44223022 C8.2753563 108.75768133 7.81087044 111.75651823 7 115 C1.39 115 -4.22 115 -10 115 C-10.57405067 107.61711299 -11.14357063 100.23389529 -11.70898438 92.8503418 C-11.90176411 90.34113236 -12.09575876 87.83201594 -12.29101562 85.32299805 C-12.57224625 81.70645831 -12.84903569 78.08960119 -13.125 74.47265625 C-13.21249512 73.35979752 -13.29999023 72.24693878 -13.39013672 71.10035706 C-13.8474205 65.04522861 -14.08925796 59.07233088 -14 53 C-14.66 53 -15.32 53 -16 53 C-15.93361328 53.63381592 -15.86722656 54.26763184 -15.79882812 54.9206543 C-15.0473349 62.54872189 -14.72508879 70.1528158 -14.5 77.8125 C-14.10612749 90.21510759 -13.59022929 102.605185 -13 115 C-21.58 115 -30.16 115 -39 115 C-39 77.38 -39 39.76 -39 1 C-27.12 1 -15.24 1 -3 1 C-2.67 21.46 -2.34 41.92 -2 63 C-1.01 63.495 -1.01 63.495 0 64 C0 42.88 0 21.76 0 0 Z " fill="#500429" transform="translate(507,214)"/>
<path d="M0 0 C10.56 0 21.12 0 32 0 C32.45375 3.91875 32.9075 7.8375 33.375 11.875 C33.52428955 13.16132324 33.6735791 14.44764648 33.82739258 15.77294922 C34.42909595 20.97429756 35.02592637 26.17553295 35.57421875 31.3828125 C36.30165334 38.27433529 37.11703874 45.03454903 38.625 51.80859375 C39.26605688 55.5547699 39.12227849 59.20936668 39 63 C39.66 63 40.32 63 41 63 C39.95538643 47.68939507 38.040295 32.60709248 35.67700195 17.45361328 C35.56706406 16.7396489 35.45712616 16.02568451 35.34385681 15.29008484 C35.04252821 13.33848743 34.73509305 11.38783567 34.42724609 9.43725586 C34 6 34 6 34 0 C43.9 0 53.8 0 64 0 C64 38.28 64 76.56 64 116 C53.44 116 42.88 116 32 116 C31.62875 112.41125 31.62875 112.41125 31.25 108.75 C30.36237728 100.44523427 29.16568987 92.19785281 27.9375 83.9375 C26.41306724 73.62124777 25.29782675 63.42393636 25 53 C24.34 53 23.68 53 23 53 C23.07516846 53.61069336 23.15033691 54.22138672 23.2277832 54.85058594 C24.78374734 67.53822098 26.28399088 80.23204906 27.6875 92.9375 C27.81874268 94.09024414 27.94998535 95.24298828 28.08520508 96.43066406 C28.26539185 98.08727051 28.26539185 98.08727051 28.44921875 99.77734375 C28.60910278 101.21968384 28.60910278 101.21968384 28.7722168 102.69116211 C29.07693756 107.1176149 29 111.56307099 29 116 C19.43 116 9.86 116 0 116 C0 77.72 0 39.44 0 0 Z " fill="#51052A" transform="translate(275,214)"/>
<path d="M0 0 C42.64619165 0 42.64619165 0 51.375 6.0625 C52.14585937 6.56910156 52.91671875 7.07570312 53.7109375 7.59765625 C61.87364425 16.16431948 61.75819584 26.08977098 61.69921875 37.21484375 C61.70514029 38.87814339 61.71239226 40.54143876 61.72090149 42.20472717 C61.73272902 45.67699528 61.72616308 49.14862026 61.70678711 52.62084961 C61.68391313 57.04365992 61.71068991 61.46454713 61.75184917 65.88716793 C61.77757545 69.31820942 61.77480725 72.74879978 61.76395607 76.17990303 C61.76248172 77.80919707 61.7700148 79.43852785 61.78720665 81.06773186 C61.87374299 90.85531179 61.26695522 98.94790408 55 107 C39.98145695 121.53788265 20.64804838 116 0 116 C0 77.72 0 39.44 0 0 Z " fill="#52062B" transform="translate(341,214)"/>
<path d="M0 0 C1.02802734 -0.01611328 2.05605469 -0.03222656 3.11523438 -0.04882812 C12.69306283 -0.0550354 12.69306283 -0.0550354 16.4375 3.3125 C16.4375 3.9725 16.4375 4.6325 16.4375 5.3125 C17.18 5.51875 17.9225 5.725 18.6875 5.9375 C22.26121889 7.72435945 23.50272496 9.87289993 25.4375 13.3125 C25.4375 13.9725 25.4375 14.6325 25.4375 15.3125 C26.0975 15.3125 26.7575 15.3125 27.4375 15.3125 C29.21821156 19.91131823 29.69015981 23.74009035 29.69628906 28.65966797 C29.6997937 29.36945801 29.70329834 30.07924805 29.70690918 30.81054688 C29.71566527 33.14202849 29.7098979 35.47320313 29.703125 37.8046875 C29.70447371 39.43604592 29.70641596 41.06740394 29.70892334 42.69876099 C29.71186657 46.11317787 29.7076039 49.52748987 29.69824219 52.94189453 C29.68686626 57.3017204 29.69340038 61.66129949 29.70538712 66.02111626 C29.71264288 69.38931102 29.71030047 72.7574481 29.70513153 76.12564468 C29.70380436 77.73228103 29.70540982 79.33892275 29.71009064 80.94555283 C29.71521525 83.19935552 29.70736256 85.45276897 29.69628906 87.70654297 C29.69469788 88.9852829 29.69310669 90.26402283 29.69146729 91.58151245 C29.11019018 100.12094946 26.6552114 106.33689418 20.4375 112.3125 C11.60776971 119.23694227 1.52805809 119.42398999 -9.2355957 118.64135742 C-15.03332035 117.82197487 -19.68117962 116.0574341 -23.375 111.375 C-24.18904297 110.37146484 -24.18904297 110.37146484 -25.01953125 109.34765625 C-25.52871094 108.67605469 -26.03789062 108.00445312 -26.5625 107.3125 C-27.08199219 106.69246094 -27.60148437 106.07242188 -28.13671875 105.43359375 C-31.42302443 100.54465133 -31.86330519 95.46482839 -31.86889648 89.72167969 C-31.87722 88.98584152 -31.88554352 88.25000336 -31.89411926 87.49186707 C-31.9181036 85.07264829 -31.92697781 82.65369986 -31.93359375 80.234375 C-31.94257008 78.54054692 -31.9516921 76.84671961 -31.96095276 75.15289307 C-31.97741476 71.60565267 -31.98513756 68.05850632 -31.98803711 64.51123047 C-31.9934128 59.98763759 -32.03107063 55.4649411 -32.07678127 50.9416008 C-32.1066713 47.44292046 -32.11376327 43.94445269 -32.11476326 40.44565582 C-32.11894322 38.77922722 -32.13128724 37.11279666 -32.15228081 35.44649506 C-32.27982462 24.44626055 -31.51435265 15.98901401 -24 7.375 C-23.195625 6.694375 -22.39125 6.01375 -21.5625 5.3125 C-20.923125 4.755625 -20.28375 4.19875 -19.625 3.625 C-13.47406007 -0.2892345 -7.0405712 -0.02215409 0 0 Z " fill="#53072C" transform="translate(435.5625,212.6875)"/>
<path d="M0 0 C0 0.66 0 1.32 0 2 C0.556875 2.20625 1.11375 2.4125 1.6875 2.625 C7.48179353 6.07025561 10.34436092 11.62860663 12 18 C12.32841436 21.35016332 12.28739355 24.63839053 12.1875 28 C12.0946875 32.455 12.0946875 32.455 12 37 C2.1 37 -7.8 37 -18 37 C-18 31.72 -18 26.44 -18 21 C-18.66 21 -19.32 21 -20 21 C-19.67 26.94 -19.34 32.88 -19 39 C-17.02 39.66 -15.04 40.32 -13 41 C-9.625 43 -9.625 43 -7 45 C-7 45.66 -7 46.32 -7 47 C-5.7315625 47.3403125 -5.7315625 47.3403125 -4.4375 47.6875 C3.18472577 50.59780439 6.60743663 54.18949129 10.0546875 61.59765625 C12.33888578 67.4025403 12.25386459 72.94873658 12.3125 79.125 C12.34150391 80.12015625 12.37050781 81.1153125 12.40039062 82.140625 C12.47484573 90.91487257 9.89767217 97.28793457 6 105 C5.34 105 4.68 105 4 105 C4 105.66 4 106.32 4 107 C-3.56436006 114.3279738 -12.29552992 114.5546085 -22.19189453 114.47827148 C-30.47656958 114.25174309 -35.91573136 112.77602195 -42.0703125 107.0859375 C-50.57150658 97.6210453 -49 86.23522414 -49 74 C-39.43 74 -29.86 74 -20 74 C-20 78.62 -20 83.24 -20 88 C-19.34 88 -18.68 88 -18 88 C-17.85004872 79.05361309 -17.85004872 79.05361309 -21 71 C-22.485 70.01 -22.485 70.01 -24 69 C-24.68835938 68.51402344 -25.37671875 68.02804687 -26.0859375 67.52734375 C-29.53757107 65.13004876 -33.03232439 62.95624415 -36.75 61 C-42.89463435 57.21868656 -46.71179986 51.66167425 -48.625 44.73828125 C-50.9575154 33.90180347 -52.49713104 18.53674316 -46.58984375 8.63671875 C-35.73311966 -6.47366489 -16.06283571 -7.92527577 0 0 Z " fill="#51052A" transform="translate(145,217)"/>
<path d="M0 0 C22.77 0 45.54 0 69 0 C69.495 9.6525 69.99 19.305 70.5 29.25 C70.65662109 32.27317383 70.81324219 35.29634766 70.97460938 38.41113281 C71.09789644 40.8417847 71.22095804 43.27244805 71.34375 45.703125 C71.40852539 46.93724121 71.47330078 48.17135742 71.54003906 49.44287109 C71.91682708 56.96966022 72.0819201 64.46400129 72 72 C70.71222656 71.98839844 69.42445313 71.97679687 68.09765625 71.96484375 C66.41927228 71.9554673 64.74088674 71.94636695 63.0625 71.9375 C62.21236328 71.92912109 61.36222656 71.92074219 60.48632812 71.91210938 C59.67744141 71.90888672 58.86855469 71.90566406 58.03515625 71.90234375 C57.2862915 71.89710693 56.53742676 71.89187012 55.76586914 71.88647461 C53.97332261 71.80658248 53.97332261 71.80658248 53 73 C51.58429877 73.08651611 50.164405 73.10704904 48.74609375 73.09765625 C47.89208984 73.09443359 47.03808594 73.09121094 46.15820312 73.08789062 C45.26037109 73.07951172 44.36253906 73.07113281 43.4375 73.0625 C42.53580078 73.05798828 41.63410156 73.05347656 40.70507812 73.04882812 C38.46998686 73.03700225 36.23502563 73.0205222 34 73 C34.14424209 70.43740121 34.28997629 67.87491084 34.4375 65.3125 C34.48261719 64.52866943 34.52773438 63.74483887 34.57421875 62.93725586 C34.82706981 58.63922676 35.12673842 54.3520458 35.5 50.0625 C36.39029726 39.06803544 36.61621258 28.02123934 37 17 C34.36 17 31.72 17 29 17 C29 35.48 29 53.96 29 73 C22.73 73 16.46 73 10 73 C9 72 9 72 8.87974548 69.75376892 C8.8830764 68.26484886 8.8830764 68.26484886 8.88647461 66.74584961 C8.88655014 65.62476303 8.88662567 64.50367645 8.88670349 63.34861755 C8.89186478 62.1288472 8.89702606 60.90907684 8.90234375 59.65234375 C8.9037587 58.41078018 8.90517365 57.16921661 8.90663147 55.89002991 C8.91129409 52.58394509 8.92028503 49.27792854 8.93133545 45.97186279 C8.94155173 42.6003885 8.94612955 39.22890717 8.95117188 35.85742188 C8.96222605 29.23826225 8.97898264 22.61913507 9 16 C6.03 16 3.06 16 0 16 C0 10.72 0 5.44 0 0 Z " fill="#51052A" transform="translate(390,336)"/>
<path d="M0 0 C19.14 0 38.28 0 58 0 C58 7.59 58 15.18 58 23 C53.05 23 48.1 23 43 23 C43 52.7 43 82.4 43 113 C33.76 113 24.52 113 15 113 C14.67 83.96 14.34 54.92 14 25 C7.07 24.505 7.07 24.505 0 24 C0 16.08 0 8.16 0 0 Z " fill="#4D0227" transform="translate(159,216)"/>
<path d="M0 0 C12.87 0 25.74 0 39 0 C39 24.09 39 48.18 39 73 C26 73 13 73 0 73 C0 48.91 0 24.82 0 0 Z " fill="#53072C" transform="translate(95,336)"/>
<path d="M0 0 C6.6 0 13.2 0 20 0 C21.02048306 7.27944581 22.01850178 14.47621808 22.5 21.8125 C22.87619869 27.33920083 23.78073153 32.60420525 25 38 C25.16934517 31.12740866 24.53085427 24.66377905 23.5 17.875 C23.21417808 15.97724545 22.93282156 14.07881221 22.65625 12.1796875 C22.53056641 11.35194824 22.40488281 10.52420898 22.27539062 9.67138672 C21.9446707 6.46328621 22 3.22510226 22 0 C27.94 0 33.88 0 40 0 C40 24.09 40 48.18 40 73 C33.4 73 26.8 73 20 73 C19.42705605 68.26809681 18.85629946 63.53603268 18.29101562 58.80322266 C18.09827434 57.19499713 17.90428062 55.58692117 17.70898438 53.97900391 C17.42765036 51.66086903 17.15090225 49.34222437 16.875 47.0234375 C16.78750488 46.31069672 16.70000977 45.59795593 16.60986328 44.86361694 C16.14150576 40.88522846 15.91233724 37.00509235 16 33 C15.34 33 14.68 33 14 33 C14.12117188 33.96824707 14.24234375 34.93649414 14.3671875 35.93408203 C14.81814719 39.54544572 15.2642739 43.15739315 15.70898438 46.76953125 C15.90168763 48.32926362 16.09568033 49.88883726 16.29101562 51.44824219 C16.57245116 53.69685468 16.84915986 55.94600759 17.125 58.1953125 C17.21249512 58.8861795 17.29999023 59.57704651 17.39013672 60.28884888 C17.87281004 64.26817237 18 67.95767833 18 72 C12.06 72 6.12 72 0 72 C0 48.24 0 24.48 0 0 Z " fill="#500529" transform="translate(464,336)"/>
<path d="M0 0 C3.74544833 1.34261441 6.48529694 2.90142335 9 6 C11.93973245 12.42275033 12.44256745 17.80512307 12.3984375 24.81640625 C12.40130768 25.83169907 12.40417786 26.84699188 12.40713501 27.89305115 C12.4091669 30.02855999 12.40369861 32.16408782 12.39111328 34.29956055 C12.37503085 37.55625206 12.39100091 40.81170578 12.41015625 44.06835938 C12.40817399 46.15104439 12.40433067 48.23372863 12.3984375 50.31640625 C12.40451019 51.28324844 12.41058289 52.25009064 12.4168396 53.24623108 C12.34997933 59.71291494 11.6797669 64.87878658 7.31640625 69.9609375 C6.44822266 70.66089844 6.44822266 70.66089844 5.5625 71.375 C4.98628906 71.85710937 4.41007812 72.33921875 3.81640625 72.8359375 C-1.36092745 76.15388469 -8.10200781 75.42515016 -14 75 C-17.89859852 74.12056481 -20.46041257 72.53958743 -23.3125 69.6875 C-27.26936197 63.38583094 -27.31976207 57.41855825 -27.3359375 50.1953125 C-27.3425943 49.15736542 -27.3492511 48.11941833 -27.35610962 47.05001831 C-27.36621047 44.85969814 -27.37092744 42.66934735 -27.37060547 40.47900391 C-27.37497637 37.14303465 -27.41131826 33.80839155 -27.44921875 30.47265625 C-27.45508802 28.33854616 -27.45905667 26.20442983 -27.4609375 24.0703125 C-27.48249405 22.58556931 -27.48249405 22.58556931 -27.50448608 21.0708313 C-27.46405036 14.88694572 -26.58526337 10.14040483 -23 5 C-16.38394282 -1.14348167 -8.64245251 -1.17438732 0 0 Z " fill="#55092E" transform="translate(162,335)"/>
<path d="M0 0 C12.87 0 25.74 0 39 0 C39.08407004 7.67839731 39.16418364 15.35511116 39.20700073 23.03356934 C39.22805354 26.6098211 39.25614833 30.18568869 39.30175781 33.76171875 C39.345474 37.21120466 39.36919071 40.66031992 39.37950897 44.11006165 C39.39041005 46.05539182 39.42159466 48.00057452 39.45318604 49.94567871 C39.45519712 57.93772889 38.80381136 63.67338993 33.3515625 69.875 C26.37351947 74.42177917 18.68502111 73.70942928 10.68359375 72.7109375 C7.63075363 72.03838957 5.95462035 70.9570733 3.6875 68.8125 C-0.77192297 61.38012839 -0.26474703 53.84801016 -0.1953125 45.41015625 C-0.1924826 44.11049423 -0.18965271 42.81083221 -0.18673706 41.4717865 C-0.17914655 38.03750745 -0.15953823 34.60340093 -0.1373291 31.16918945 C-0.11677122 27.65643692 -0.10760417 24.14365534 -0.09765625 20.63085938 C-0.07735184 13.7537545 -0.03819444 6.87712174 0 0 Z " fill="#52062B" transform="translate(175,336)"/>
<path d="M0 0 C3.80634822 1.5324259 5.87158125 3.1262095 7.875 6.8125 C9.89434639 12.81217656 9.96673319 18.54406504 9.875 24.8125 C8.58722656 24.80089844 7.29945313 24.78929687 5.97265625 24.77734375 C4.29427228 24.7679673 2.61588674 24.75886695 0.9375 24.75 C0.08736328 24.74162109 -0.76277344 24.73324219 -1.63867188 24.72460938 C-2.44755859 24.72138672 -3.25644531 24.71816406 -4.08984375 24.71484375 C-4.8387085 24.70960693 -5.58757324 24.70437012 -6.35913086 24.69897461 C-8.15167739 24.61908248 -8.15167739 24.61908248 -9.125 25.8125 C-5.14453603 28.65314509 -5.14453603 28.65314509 -0.6875 30.5625 C3.45049195 32.58103266 6.1704607 36.1410152 8.875 39.8125 C11.53502389 47.79257167 10.80454196 58.1851449 7.2890625 65.78515625 C4.86129738 69.26584713 1.66218799 71.05006403 -2.125 72.8125 C-3.115 73.3075 -3.115 73.3075 -4.125 73.8125 C-11.01414913 74.35610509 -17.18460887 74.57070664 -23.125 70.8125 C-29.69365971 64.02088317 -29.24626147 56.78584856 -29.125 47.8125 C-22.855 47.8125 -16.585 47.8125 -10.125 47.8125 C-14.35943571 43.31504999 -14.35943571 43.31504999 -19.125 41 C-23.83329859 38.81940802 -26.01216122 35.45530452 -28.125 30.8125 C-30.54494099 23.4601952 -30.10296104 13.90195402 -27.203125 6.7578125 C-21.44878559 -3.62501731 -10.44396988 -2.97411063 0 0 Z " fill="#53082B" transform="translate(244.125,336.1875)"/>
<path d="M0 0 C4.08319066 2.07562192 7.56192431 4.594651 9.64453125 8.81640625 C10.96779875 14.14548352 10.42586516 19.69213337 10.21875 25.12890625 C4.27875 25.12890625 -1.66125 25.12890625 -7.78125 25.12890625 C-7.78125 21.82890625 -7.78125 18.52890625 -7.78125 15.12890625 C-8.44125 15.12890625 -9.10125 15.12890625 -9.78125 15.12890625 C-10.22649003 19.09957142 -10.1446688 22.34829075 -8.78125 26.12890625 C-5.68244251 28.6887907 -2.49580142 30.47209738 1.03125 32.359375 C4.99624906 34.56053257 6.87937052 36.28563996 9.21875 40.12890625 C10.31510088 44.93870366 10.33884734 49.60370161 10.28125 54.50390625 C10.27673828 55.23996094 10.27222656 55.97601563 10.26757812 56.734375 C10.25590142 58.53258783 10.23797011 60.33075822 10.21875 62.12890625 C9.55875 62.12890625 8.89875 62.12890625 8.21875 62.12890625 C8.26 62.99515625 8.30125 63.86140625 8.34375 64.75390625 C6.79298577 69.40619893 4.39318779 70.69226829 0.1796875 72.9921875 C-5.87015522 75.31475245 -12.53024108 75.20307161 -18.65625 73.06640625 C-23.41299778 70.11722263 -26.96697824 66.74620833 -28.65625 61.31640625 C-28.82892291 56.91324709 -28.84080106 52.53568434 -28.78125 48.12890625 C-22.51125 48.12890625 -16.24125 48.12890625 -9.78125 48.12890625 C-9.78125 51.42890625 -9.78125 54.72890625 -9.78125 58.12890625 C-9.12125 58.12890625 -8.46125 58.12890625 -7.78125 58.12890625 C-7.92220064 56.50347545 -8.06917087 54.87856574 -8.21875 53.25390625 C-8.29996094 52.34898437 -8.38117188 51.4440625 -8.46484375 50.51171875 C-8.65114285 48.11779764 -8.65114285 48.11779764 -9.78125 46.12890625 C-12.09090848 45.07537782 -14.4242274 44.07171529 -16.78125 43.12890625 C-16.78125 42.46890625 -16.78125 41.80890625 -16.78125 41.12890625 C-17.503125 40.90203125 -18.225 40.67515625 -18.96875 40.44140625 C-23.29911879 38.42056748 -26.06181556 35.86254342 -27.90625 31.41796875 C-30.1650676 22.92723474 -30.09573928 12.89498695 -25.78125 5.12890625 C-19.1481784 -2.06598289 -9.10762886 -2.85252983 0 0 Z " fill="#52072B" transform="translate(378.78125,335.87109375)"/>
<path d="M0 0 C1.30453125 -0.02578125 2.6090625 -0.0515625 3.953125 -0.078125 C10.50207523 0.48783366 14.53265466 3.32976377 18.75 8.25 C21.54219824 13.84402475 20.88497189 19.10877878 20.75 25.25 C14.81 25.25 8.87 25.25 2.75 25.25 C2.75 22.28 2.75 19.31 2.75 16.25 C2.09 16.25 1.43 16.25 0.75 16.25 C1.08 20.21 1.41 24.17 1.75 28.25 C3.4 28.91 5.05 29.57 6.75 30.25 C12.07229823 32.80793423 16.51242537 35.12384017 19.75 40.25 C21.15835168 44.47505504 21.09478626 48.50961986 21.1875 52.9375 C21.23326172 53.81083984 21.27902344 54.68417969 21.32617188 55.58398438 C21.43051049 61.65830632 20.19915153 64.99935574 16.30957031 69.67333984 C11.85241904 74.17933279 7.17457763 75.41362059 1 75.5625 C-5.59988884 75.47492608 -9.04968601 74.49929839 -13.78125 69.6953125 C-18.59005509 63.47058146 -17.61318832 56.80431713 -17.25 49.25 C-11.31 49.25 -5.37 49.25 0.75 49.25 C0.75 52.22 0.75 55.19 0.75 58.25 C1.41 58.25 2.07 58.25 2.75 58.25 C2.42 54.62 2.09 50.99 1.75 47.25 C0.1 46.59 -1.55 45.93 -3.25 45.25 C-9.54608185 42.6625691 -13.66648912 39.83864261 -16.44140625 33.47265625 C-18.37554027 25.76415112 -18.90208676 16.31196831 -15.87890625 8.87890625 C-11.50461906 1.81920534 -8.02589636 0.09442231 0 0 Z " fill="#51062A" transform="translate(523.25,334.75)"/>
<path d="M0 0 C8.91 0 17.82 0 27 0 C27 5.28 27 10.56 27 16 C24.36 16 21.72 16 19 16 C19 19.3 19 22.6 19 26 C21.64 26 24.28 26 27 26 C27 31.61 27 37.22 27 43 C24.36 43 21.72 43 19 43 C19 47.29 19 51.58 19 56 C21.64 56 24.28 56 27 56 C27 61.61 27 67.22 27 73 C18.09 73 9.18 73 0 73 C0 48.91 0 24.82 0 0 Z " fill="#53072B" transform="translate(255,336)"/>
<path d="M0 0 C11.88 0 23.76 0 36 0 C36 4.62 36 9.24 36 14 C33.36 14.33 30.72 14.66 28 15 C27.67 33.48 27.34 51.96 27 71 C21.06 71 15.12 71 9 71 C9 52.19 9 33.38 9 14 C6.03 14 3.06 14 0 14 C0 9.38 0 4.76 0 0 Z " fill="#4E0327" transform="translate(391,337)"/>
<path d="M0 0 C0.99 1.32 1.98 2.64 3 4 C3.66 4.66 4.32 5.32 5 6 C6.74627478 8.61941217 7.38722388 10.03824877 8 13 C8.99 13 9.98 13 11 13 C11.309375 12.195625 11.309375 12.195625 11.625 11.375 C13.63168609 7.90890585 15.53780512 5.12375268 19 3 C22.80929001 2.21168094 26.19381051 2.18523756 30 3 C32.52605704 5.28548018 33.51068645 7.0213729 35 10 C35.33839741 20.82871712 32.04573775 35.32209419 24.875 43.5625 C21.36368963 47.06697903 19.10354704 47.92993352 14.0625 48.25 C11.31456041 48.20966327 10.10778576 48.05672935 7.625 46.75 C4.20850982 43.07070288 3.69703687 39.68789874 3.375 34.75 C3.26285156 33.13351562 3.26285156 33.13351562 3.1484375 31.484375 C3.09945313 30.66453125 3.05046875 29.8446875 3 29 C2.34 29 1.68 29 1 29 C1 34.94 1 40.88 1 47 C0.67 47 0.34 47 0 47 C0 41.39 0 35.78 0 30 C-2.64 30 -5.28 30 -8 30 C-8 25.71 -8 21.42 -8 17 C-5.36 17 -2.72 17 0 17 C0 11.39 0 5.78 0 0 Z " fill="#E79FB9" transform="translate(282,362)"/>
<path d="M0 0 C12.54 0 25.08 0 38 0 C38 20.79 38 41.58 38 63 C37.67 63 37.34 63 37 63 C37 42.54 37 22.08 37 1 C25.12 1 13.24 1 1 1 C1 38.62 1 76.24 1 115 C9.58 115 18.16 115 27 115 C26.690625 112.195 26.38125 109.39 26.0625 106.5 C24.29355612 88.74191988 24.32226865 70.82957866 24 53 C24.66 53 25.32 53 26 53 C26.57656577 59.90048188 27.14535774 66.80157432 27.70898438 73.703125 C27.90124387 76.04636828 28.09522222 78.38947123 28.29101562 80.73242188 C28.57363832 84.11812646 28.84988514 87.50430304 29.125 90.890625 C29.21249512 91.92237854 29.29999023 92.95413208 29.39013672 94.01715088 C29.95189141 101.03272667 30.07341135 107.96168669 30 115 C35.61 115 41.22 115 47 115 C49.40729889 84.02459924 49.40729889 84.02459924 51 53 C51.99 53 52.98 53 54 53 C54.1461235 62.72424827 53.75291534 72.36957995 53.20043945 82.07470703 C53.06271488 84.49622199 52.93032852 86.91798358 52.79882812 89.33984375 C52.71124921 90.92449642 52.62336856 92.50913246 52.53515625 94.09375 C52.47727684 95.14592712 52.47727684 95.14592712 52.41822815 96.21936035 C52.03998927 102.82360082 51.50771218 109.39974171 51 116 C59.91 116 68.82 116 78 116 C78 116.33 78 116.66 78 117 C65.625 117.495 65.625 117.495 53 118 C53 118.99 53 119.98 53 121 C51.7625 121.37125 50.525 121.7425 49.25 122.125 C44.8923458 123.74465908 43.17017441 125.83326513 41 130 C39.70143038 133.89570887 39.73675864 137.62530392 39.6875 141.6875 C39.65849609 142.46544922 39.62949219 143.24339844 39.59960938 144.04492188 C39.54265302 149.29805011 40.49588286 152.82987893 43.13598633 157.38208008 C44 159 44 159 44 161 C44.9590625 161.3403125 44.9590625 161.3403125 45.9375 161.6875 C57.27272727 166.54545455 57.27272727 166.54545455 59 170 C59.06950541 171.54023996 59.08452357 173.08334988 59.0625 174.625 C59.05347656 175.44226563 59.04445313 176.25953125 59.03515625 177.1015625 C59.02355469 177.72804688 59.01195312 178.35453125 59 179 C58.34 179 57.68 179 57 179 C57 176.03 57 173.06 57 170 C51.06 170 45.12 170 39 170 C39 173.3 39 176.6 39 180 C38.67 180 38.34 180 38 180 C37.00138944 173.39327545 36.86960743 166.95626603 36.90234375 160.28125 C36.9037587 159.18276733 36.90517365 158.08428467 36.90663147 156.95251465 C36.91219743 153.46831457 36.92474361 149.98418042 36.9375 146.5 C36.9425194 144.1276051 36.94708154 141.75520918 36.95117188 139.3828125 C36.96215571 133.58851654 36.97939674 127.79426942 37 122 C31.06 122 25.12 122 19 122 C19.28875 123.96582031 19.5775 125.93164062 19.875 127.95703125 C20.15354813 129.89990447 20.43203757 131.84278654 20.70898438 133.78588867 C20.9933567 135.76623658 21.285647 137.74544236 21.578125 139.72460938 C22.63922177 147.20913122 23.28389804 154.44022893 23 162 C17.93707235 156.93707235 18.57681474 146.7114275 17.875 139.875 C17.78734375 139.02824707 17.6996875 138.18149414 17.609375 137.30908203 C17.52945312 136.48263184 17.44953125 135.65618164 17.3671875 134.8046875 C17.29612793 134.07233887 17.22506836 133.33999023 17.15185547 132.58544922 C16.94494649 129.06267422 17 125.52884613 17 122 C10.4 122 3.8 122 -3 122 C-3 121.67 -3 121.34 -3 121 C5.58 121 14.16 121 23 121 C23 120.34 23 119.68 23 119 C23.99 119 24.98 119 26 119 C26 118.34 26 117.68 26 117 C17.42 117 8.84 117 0 117 C0 78.39 0 39.78 0 0 Z " fill="#DD95B2" transform="translate(467,214)"/>
<path d="M0 0 C0.33 0 0.66 0 1 0 C1 37.95 1 75.9 1 115 C10.57 115 20.14 115 30 115 C30 113.35 30 111.7 30 110 C30.33 110 30.66 110 31 110 C31 111.98 31 113.96 31 116 C18.625 116.495 18.625 116.495 6 117 C6 117.66 6 118.32 6 119 C6.66 119 7.32 119 8 119 C8 119.66 8 120.32 8 121 C-0.91 121 -9.82 121 -19 121 C-19 145.09 -19 169.18 -19 194 C-19.33 194 -19.66 194 -20 194 C-20.06058594 193.37351562 -20.12117188 192.74703125 -20.18359375 192.1015625 C-20.26738281 191.28429687 -20.35117188 190.46703125 -20.4375 189.625 C-20.51871094 188.81289063 -20.59992188 188.00078125 -20.68359375 187.1640625 C-20.89090114 184.95727195 -20.89090114 184.95727195 -22 183 C-21.86078125 182.45085937 -21.7215625 181.90171875 -21.578125 181.3359375 C-20.77255427 178.0809963 -20.79011374 174.97449691 -20.75 171.625 C-20.72421875 170.33851563 -20.6984375 169.05203125 -20.671875 167.7265625 C-21.24224694 161.24876693 -24.09015522 157.12873311 -29 153 C-31.30965848 151.94647157 -33.6429774 150.94280904 -36 150 C-38.19921875 148.73828125 -38.19921875 148.73828125 -40 147 C-40.390625 144.51953125 -40.390625 144.51953125 -40.25 141.8125 C-40.21390625 140.91144531 -40.1778125 140.01039063 -40.140625 139.08203125 C-40.07101563 138.05142578 -40.07101563 138.05142578 -40 137 C-39.67 137 -39.34 137 -39 137 C-38.67 139.64 -38.34 142.28 -38 145 C-32.06 145.33 -26.12 145.66 -20 146 C-20.268125 143.628125 -20.53625 141.25625 -20.8125 138.8125 C-20.92815308 137.70612183 -20.92815308 137.70612183 -21.04614258 136.57739258 C-21.57015721 132.33659655 -22.6214512 129.51475846 -25 126 C-25.33 125.01 -25.66 124.02 -26 123 C-30.28659233 122.27688184 -34.57790359 121.59521884 -38.875 120.9375 C-40.02742188 120.76089844 -41.17984375 120.58429688 -42.3671875 120.40234375 C-43.23601562 120.26957031 -44.10484375 120.13679688 -45 120 C-45 119.67 -45 119.34 -45 119 C-40.71 119 -36.42 119 -32 119 C-32 118.01 -32 117.02 -32 116 C-41.57 116 -51.14 116 -61 116 C-61 115.67 -61 115.34 -61 115 C-51.43 115 -41.86 115 -32 115 C-32 107.08 -32 99.16 -32 91 C-31.34 91 -30.68 91 -30 91 C-30 98.92 -30 106.84 -30 115 C-20.43 115 -10.86 115 -1 115 C-1.495 102.13 -1.495 102.13 -2 89 C-1.67 89 -1.34 89 -1 89 C-0.67 59.63 -0.34 30.26 0 0 Z " fill="#E59EB9" transform="translate(274,215)"/>
<path d="M0 0 C1 2 1 2 0.4375 4 C0.293125 4.66 0.14875 5.32 0 6 C1.84595486 8.06447 1.84595486 8.06447 4.0625 9 C6 10 6 10 7 12 C6.34 12 5.68 12 5 12 C5 37.08 5 62.16 5 88 C10.94 88 16.88 88 23 88 C22.71125 86.10636719 22.4225 84.21273437 22.125 82.26171875 C21.74958325 79.7370411 21.37460662 77.21229798 21 74.6875 C20.80921875 73.44419922 20.6184375 72.20089844 20.421875 70.91992188 C19.33870818 63.55051907 18.72288773 56.44835436 19 49 C19.66 49 20.32 49 21 49 C21.57636092 53.26752342 22.14575095 57.53590474 22.70898438 61.80517578 C22.90112866 63.25431767 23.09510281 64.70321825 23.29101562 66.15185547 C23.57395134 68.2464459 23.85007009 70.3418455 24.125 72.4375 C24.37636719 74.32275391 24.37636719 74.32275391 24.6328125 76.24609375 C25.02228203 80.22779821 25.13048064 84.00294317 25 88 C24 89 24 89 20.39819336 89.11352539 C18.79540144 89.11336625 17.1926044 89.10767063 15.58984375 89.09765625 C14.74780899 89.0962413 13.90577423 89.09482635 13.03822327 89.09336853 C10.33794665 89.08775263 7.63775172 89.07519748 4.9375 89.0625 C3.11132932 89.05748705 1.28515734 89.05292379 -0.54101562 89.04882812 C-5.02737542 89.03777804 -9.51367384 89.02050279 -14 89 C-14 88.67 -14 88.34 -14 88 C-8.39 88 -2.78 88 3 88 C2.91435791 86.67162109 2.82871582 85.34324219 2.74047852 83.97460938 C2.41533874 78.92009313 2.09379495 73.86535283 1.77319336 68.81054688 C1.63546196 66.64642432 1.49682811 64.48235895 1.35717773 62.31835938 C0.36206355 46.88510829 -0.42423874 31.4546858 -1 16 C-1.77190674 15.97494385 -2.54381348 15.9498877 -3.33911133 15.92407227 C-6.83041181 15.80815993 -10.32143922 15.68541176 -13.8125 15.5625 C-15.63491211 15.50352539 -15.63491211 15.50352539 -17.49414062 15.44335938 C-18.65751953 15.40146484 -19.82089844 15.35957031 -21.01953125 15.31640625 C-22.09307861 15.27974854 -23.16662598 15.24309082 -24.27270508 15.20532227 C-27 15 -27 15 -30 14 C-30 13.34 -30 12.68 -30 12 C-29.05640625 11.92523438 -28.1128125 11.85046875 -27.140625 11.7734375 C-17.87560195 10.82460984 -7.50360534 9.40817564 -1.171875 1.8046875 C-0.78515625 1.20914062 -0.3984375 0.61359375 0 0 Z " fill="#E69FB9" transform="translate(459,320)"/>
<path d="M0 0 C0.99 1.32 1.98 2.64 3 4 C3.66 4.66 4.32 5.32 5 6 C6.74627478 8.61941217 7.38722388 10.03824877 8 13 C8.99 13 9.98 13 11 13 C11.2475 12.4225 11.495 11.845 11.75 11.25 C13.16683317 8.6997003 14.87627537 6.98214299 17 5 C17.99 5.33 18.98 5.66 20 6 C19.54496094 6.37511719 19.08992188 6.75023437 18.62109375 7.13671875 C16.5156444 9.55671715 15.94725599 11.73294158 15.0625 14.8125 C14.72863281 15.97007812 14.39476562 17.12765625 14.05078125 18.3203125 C13.70402344 19.53460938 13.35726563 20.74890625 13 22 C12.62230469 23.19367188 12.24460937 24.38734375 11.85546875 25.6171875 C9.6975114 32.58670348 8.39417781 38.69647691 9 46 C6 45 6 45 4.8515625 43.328125 C3.79361663 40.43575922 3.57522791 37.8201613 3.375 34.75 C3.26285156 33.13351562 3.26285156 33.13351562 3.1484375 31.484375 C3.09945313 30.66453125 3.05046875 29.8446875 3 29 C2.34 29 1.68 29 1 29 C1 34.94 1 40.88 1 47 C0.67 47 0.34 47 0 47 C0 41.39 0 35.78 0 30 C-2.64 30 -5.28 30 -8 30 C-8 25.71 -8 21.42 -8 17 C-5.36 17 -2.72 17 0 17 C0 11.39 0 5.78 0 0 Z " fill="#E39BB5" transform="translate(282,362)"/>
<path d="M0 0 C12.54 0 25.08 0 38 0 C38 20.79 38 41.58 38 63 C37.67 63 37.34 63 37 63 C37 42.54 37 22.08 37 1 C25.12 1 13.24 1 1 1 C1 38.62 1 76.24 1 115 C9.58 115 18.16 115 27 115 C26.690625 112.195 26.38125 109.39 26.0625 106.5 C24.29355612 88.74191988 24.32226865 70.82957866 24 53 C24.66 53 25.32 53 26 53 C26.57656577 59.90048188 27.14535774 66.80157432 27.70898438 73.703125 C27.90124387 76.04636828 28.09522222 78.38947123 28.29101562 80.73242188 C28.57363832 84.11812646 28.84988514 87.50430304 29.125 90.890625 C29.21249512 91.92237854 29.29999023 92.95413208 29.39013672 94.01715088 C29.95189141 101.03272667 30.07341135 107.96168669 30 115 C35.61 115 41.22 115 47 115 C47.495 113.02 47.495 113.02 48 111 C48 112.65 48 114.3 48 116 C32.16 116 16.32 116 0 116 C0 77.72 0 39.44 0 0 Z " fill="#833858" transform="translate(467,214)"/>
<path d="M0 0 C1.15790039 -0.00315216 2.31580078 -0.00630432 3.50878906 -0.009552 C4.76916992 -0.00752777 6.02955078 -0.00550354 7.328125 -0.00341797 C8.61170898 -0.00437469 9.89529297 -0.00533142 11.21777344 -0.00631714 C13.93816324 -0.00779378 16.65852025 -0.00564066 19.37890625 -0.00097656 C22.87297169 0.00472073 26.36696033 0.00144154 29.86102295 -0.00454903 C33.18339653 -0.00902301 36.50574923 -0.00589432 39.828125 -0.00341797 C41.08850586 -0.0054422 42.34888672 -0.00746643 43.64746094 -0.009552 C44.80536133 -0.00639984 45.96326172 -0.00324768 47.15625 0 C48.18137695 0.00079559 49.20650391 0.00159119 50.26269531 0.00241089 C52.578125 0.12939453 52.578125 0.12939453 53.578125 1.12939453 C53.73700592 3.41928234 53.82950573 5.71382894 53.89453125 8.00830078 C53.91531235 8.69496323 53.93609344 9.38162567 53.95750427 10.08909607 C54.02306643 12.28992388 54.08191515 14.49087428 54.140625 16.69189453 C54.18380392 18.18083967 54.227418 19.66977226 54.27148438 21.15869141 C54.3787543 24.81546006 54.48000272 28.47236771 54.578125 32.12939453 C54.248125 32.12939453 53.918125 32.12939453 53.578125 32.12939453 C53.578125 30.47939453 53.578125 28.82939453 53.578125 27.12939453 C48.628125 27.12939453 43.678125 27.12939453 38.578125 27.12939453 C38.578125 56.49939453 38.578125 85.86939453 38.578125 116.12939453 C28.678125 116.12939453 18.778125 116.12939453 8.578125 116.12939453 C8.578125 86.75939453 8.578125 57.38939453 8.578125 27.12939453 C8.908125 27.12939453 9.238125 27.12939453 9.578125 27.12939453 C9.578125 56.16939453 9.578125 85.20939453 9.578125 115.12939453 C18.818125 115.12939453 28.058125 115.12939453 37.578125 115.12939453 C37.578125 85.42939453 37.578125 55.72939453 37.578125 25.12939453 C42.528125 25.12939453 47.478125 25.12939453 52.578125 25.12939453 C52.578125 17.53939453 52.578125 9.94939453 52.578125 2.12939453 C33.438125 2.12939453 14.298125 2.12939453 -5.421875 2.12939453 C-5.421875 10.04939453 -5.421875 17.96939453 -5.421875 26.12939453 C-5.751875 26.12939453 -6.081875 26.12939453 -6.421875 26.12939453 C-6.45074251 21.98357567 -6.46862827 17.83778237 -6.484375 13.69189453 C-6.49275391 12.50789062 -6.50113281 11.32388672 -6.50976562 10.10400391 C-6.51298828 8.97929687 -6.51621094 7.85458984 -6.51953125 6.69580078 C-6.52476807 5.65367432 -6.53000488 4.61154785 -6.53540039 3.5378418 C-6.32353636 -0.95686509 -3.93990492 0.00305773 0 0 Z " fill="#803857" transform="translate(164.421875,213.87060546875)"/>
<path d="M0 0 C13.86 0.495 13.86 0.495 28 1 C28 1.33 28 1.66 28 2 C19.09 2 10.18 2 1 2 C1 26.09 1 50.18 1 75 C0.67 75 0.34 75 0 75 C-0.09087891 74.06027344 -0.09087891 74.06027344 -0.18359375 73.1015625 C-0.26738281 72.28429687 -0.35117188 71.46703125 -0.4375 70.625 C-0.51871094 69.81289063 -0.59992188 69.00078125 -0.68359375 68.1640625 C-0.89090114 65.95727195 -0.89090114 65.95727195 -2 64 C-1.86078125 63.45085937 -1.7215625 62.90171875 -1.578125 62.3359375 C-0.77255427 59.0809963 -0.79011374 55.97449691 -0.75 52.625 C-0.72421875 51.33851563 -0.6984375 50.05203125 -0.671875 48.7265625 C-1.24224694 42.24876693 -4.09015522 38.12873311 -9 34 C-11.30965848 32.94647157 -13.6429774 31.94280904 -16 31 C-18.19921875 29.73828125 -18.19921875 29.73828125 -20 28 C-20.390625 25.51953125 -20.390625 25.51953125 -20.25 22.8125 C-20.21390625 21.91144531 -20.1778125 21.01039063 -20.140625 20.08203125 C-20.09421875 19.39496094 -20.0478125 18.70789063 -20 18 C-19.67 18 -19.34 18 -19 18 C-18.67 20.64 -18.34 23.28 -18 26 C-12.06 26.33 -6.12 26.66 0 27 C-0.185625 24.7725 -0.37125 22.545 -0.5625 20.25 C-1.15321445 13.16142655 -0.61311586 7.35739035 0 0 Z " fill="#D28AA7" transform="translate(254,334)"/>
<path d="M0 0 C0.99 0.33 1.98 0.66 3 1 C2.01 1.33 1.02 1.66 0 2 C-0.88189767 3.92533457 -0.88189767 3.92533457 -1.40234375 6.3984375 C-1.64968262 7.39584961 -1.89702148 8.39326172 -2.15185547 9.42089844 C-2.43174316 10.60200195 -2.71163086 11.78310547 -3 13 C-3.34762081 14.40955053 -3.69683292 15.81870927 -4.04736328 17.22753906 C-5.03173692 21.19645261 -5.99958271 25.16918543 -6.96166992 29.14355469 C-7.5630831 31.62740823 -8.16710205 34.11061744 -8.77148438 36.59375 C-9.16161161 38.20048363 -9.55159064 39.80725324 -9.94140625 41.4140625 C-10.11853653 42.14243317 -10.29566681 42.87080383 -10.47816467 43.62124634 C-11.71435424 48.73416235 -12.87446235 53.86163299 -14 59 C-15.65 59 -17.3 59 -19 59 C-18.29538612 53.55195457 -17.2581306 48.23533643 -16.0625 42.875 C-15.80823242 41.69744141 -15.80823242 41.69744141 -15.54882812 40.49609375 C-14.65692178 36.47403698 -13.55401075 32.8218557 -12 29 C-11.48215443 26.7794999 -11.0058075 24.54907398 -10.5625 22.3125 C-6.98420847 5.41304395 -6.98420847 5.41304395 -3 1.8125 C-2.01 1.214375 -1.02 0.61625 0 0 Z " fill="#631839" transform="translate(336,350)"/>
<path d="M0 0 C0.33 0 0.66 0 1 0 C1.22786458 2.01822917 1.45572917 4.03645833 1.68359375 6.0546875 C1.91292961 8.07404316 1.91292961 8.07404316 3 10 C2.67516582 11.33542939 2.3398123 12.66830315 2 14 C1.37824982 23.03929111 1.40155906 30.50194883 7.25 37.8125 C10.33394464 40.26563778 13.37778157 41.48525411 17 43 C19.4375 44.5625 19.4375 44.5625 21 47 C21.32279399 50.36023252 21.23111856 53.63594091 21 57 C20.67 57 20.34 57 20 57 C20 54.03 20 51.06 20 48 C13.73 48 7.46 48 1 48 C1.33 52.62 1.66 57.24 2 62 C1.01 62.495 1.01 62.495 0 63 C-0.33 63.99 -0.66 64.98 -1 66 C-1.66 65.67 -2.32 65.34 -3 65 C-2.67657623 64.30030594 -2.35315247 63.60061188 -2.01992798 62.87971497 C-0.89991764 59.71742253 -0.72344404 57.27265299 -0.68115234 53.92456055 C-0.66128265 52.72369308 -0.64141296 51.52282562 -0.62094116 50.28556824 C-0.60938995 48.99894791 -0.59783875 47.71232758 -0.5859375 46.38671875 C-0.56721402 45.04863811 -0.54763973 43.71056913 -0.5272522 42.37251282 C-0.4760493 38.86273084 -0.43636064 35.35291062 -0.39910889 31.84295654 C-0.35899461 28.25653722 -0.30793626 24.6702753 -0.2578125 21.08398438 C-0.16119373 14.05610501 -0.07674433 7.02812678 0 0 Z " fill="#D287A7" transform="translate(214,336)"/>
<path d="M0 0 C12.54 0 25.08 0 38 0 C39.78147466 10.68884797 38.985263 21.2500769 38 32 C37.67 32 37.34 32 37 32 C37 27.05 37 22.1 37 17 C34.36 17 31.72 17 29 17 C29 35.48 29 53.96 29 73 C22.73 73 16.46 73 10 73 C9 72 9 72 8.87974548 69.75376892 C8.8830764 68.26484886 8.8830764 68.26484886 8.88647461 66.74584961 C8.88655014 65.62476303 8.88662567 64.50367645 8.88670349 63.34861755 C8.89186478 62.1288472 8.89702606 60.90907684 8.90234375 59.65234375 C8.9037587 58.41078018 8.90517365 57.16921661 8.90663147 55.89002991 C8.91129409 52.58394509 8.92028503 49.27792854 8.93133545 45.97186279 C8.94155173 42.6003885 8.94612955 39.22890717 8.95117188 35.85742188 C8.96222605 29.23826225 8.97898264 22.61913507 9 16 C6.03 16 3.06 16 0 16 C0 10.72 0 5.44 0 0 Z M1 1 C1 5.62 1 10.24 1 15 C3.97 15 6.94 15 10 15 C10 33.81 10 52.62 10 72 C15.94 72 21.88 72 28 72 C28.33 53.52 28.66 35.04 29 16 C31.64 15.67 34.28 15.34 37 15 C37 10.38 37 5.76 37 1 C25.12 1 13.24 1 1 1 Z " fill="#974D6C" transform="translate(390,336)"/>
<path d="M0 0 C0.33 0 0.66 0 1 0 C1 8.25 1 16.5 1 25 C9.58 25 18.16 25 27 25 C27 25.66 27 26.32 27 27 C26.01 27 25.02 27 24 27 C24 27.66 24 28.32 24 29 C15.42 29 6.84 29 -2 29 C-2 27.35 -2 25.7 -2 24 C-4.41055254 22.33700035 -4.41055254 22.33700035 -7 21 C-8.40318642 16.79044073 -6.88224523 14.90391604 -5 11 C-4.34 10.01 -3.68 9.02 -3 8 C-2.31744011 5.67126625 -1.64949225 3.33817209 -1 1 C-0.67 0.67 -0.34 0.34 0 0 Z " fill="#F1A8C5" transform="translate(466,306)"/>
<path d="M0 0 C0.33 0 0.66 0 1 0 C1 37.95 1 75.9 1 115 C12.55 115 24.1 115 36 115 C36 115.33 36 115.66 36 116 C24.78 116 13.56 116 2 116 C2.33 117.32 2.66 118.64 3 120 C-0.465 120.495 -0.465 120.495 -4 121 C-4 120.01 -4 119.02 -4 118 C-7.17509982 116.94163339 -9.64282383 116.79756211 -12.98046875 116.68359375 C-14.14384766 116.64169922 -15.30722656 116.59980469 -16.50585938 116.55664062 C-17.72080078 116.51732422 -18.93574219 116.47800781 -20.1875 116.4375 C-21.41404297 116.39431641 -22.64058594 116.35113281 -23.90429688 116.30664062 C-26.93608381 116.2004691 -29.96795315 116.09842048 -33 116 C-33 115.67 -33 115.34 -33 115 C-22.44 115 -11.88 115 -1 115 C-0.67 77.05 -0.34 39.1 0 0 Z " fill="#D58AAD" transform="translate(340,215)"/>
<path d="M0 0 C5.61 0 11.22 0 17 0 C17 2.64 17 5.28 17 8 C17.99 7.67 18.98 7.34 20 7 C20 10 20 10 18.52709961 13.01049805 C16.37750034 17.8457336 16.55081873 22.61550571 16.56640625 27.83203125 C16.5611644 28.86382004 16.55592255 29.89560883 16.55052185 30.95866394 C16.54411934 33.13462426 16.54541561 35.31061928 16.55395508 37.48657227 C16.56244686 40.79181557 16.53370663 44.0953185 16.50195312 47.40039062 C16.50034029 49.52343699 16.50092022 51.64648638 16.50390625 53.76953125 C16.49267227 54.74590042 16.48143829 55.72226959 16.46986389 56.72822571 C16.5381981 63.55838221 18.05666269 68.84712045 21 75 C20.01 75.33 19.02 75.66 18 76 C17.67 75.34 17.34 74.68 17 74 C16.34 75.32 15.68 76.64 15 78 C15 53.91 15 29.82 15 5 C8.73 5 2.46 5 -4 5 C-4 13.91 -4 22.82 -4 32 C-4.33 32 -4.66 32 -5 32 C-5 23.09 -5 14.18 -5 5 C-10.94 5 -16.88 5 -23 5 C-23 4.67 -23 4.34 -23 4 C-21.95545654 3.97494385 -20.91091309 3.9498877 -19.8347168 3.92407227 C-15.96007984 3.82991461 -12.08561866 3.72971428 -8.21118164 3.62768555 C-6.53414013 3.58436833 -4.85705542 3.54269093 -3.17993164 3.50268555 C-0.76956159 3.44490515 1.6405917 3.3812332 4.05078125 3.31640625 C4.80087967 3.29969376 5.55097809 3.28298126 6.32380676 3.26576233 C9.45677992 3.17655767 12.0070936 2.99763547 15 2 C10.05 1.67 5.1 1.34 0 1 C0 0.67 0 0.34 0 0 Z " fill="#CF85A5" transform="translate(119,331)"/>
<path d="M0 0 C9.9 0 19.8 0 30 0 C30 0.33 30 0.66 30 1 C26.37 1 22.74 1 19 1 C19.99 1.33 20.98 1.66 22 2 C22 2.66 22 3.32 22 4 C28.27 4.33 34.54 4.66 41 5 C41 5.33 41 5.66 41 6 C34.73 6 28.46 6 22 6 C22 24.81 22 43.62 22 63 C21.67 63 21.34 63 21 63 C21 44.19 21 25.38 21 6 C14.73 6 8.46 6 2 6 C2 5.34 2 4.68 2 4 C1.01 4 0.02 4 -1 4 C-0.67 2.68 -0.34 1.36 0 0 Z " fill="#DB93AF" transform="translate(173,330)"/>
<path d="M0 0 C3 1 3 1 4.19140625 2.8046875 C7.30463747 11.25703506 2.26922804 24.95266945 -1 33 C-3.01276932 36.13375265 -5.12883418 38.63356362 -8 41 C-8.99 40.67 -9.98 40.34 -11 40 C-10.37440186 39.29641357 -9.74880371 38.59282715 -9.10424805 37.86791992 C-6.88182559 34.83893784 -6.14006104 32.75014168 -5.33203125 29.11328125 C-5.07873047 28.01048828 -4.82542969 26.90769531 -4.56445312 25.77148438 C-4.19223633 24.05928711 -4.19223633 24.05928711 -3.8125 22.3125 C-3.29998758 20.03735182 -2.78575281 17.76259071 -2.26953125 15.48828125 C-2.04885986 14.48321533 -1.82818848 13.47814941 -1.60083008 12.44262695 C-1 10 -1 10 0 8 C0.0689472 6.62657169 0.08467708 5.24997898 0.0625 3.875 C0.041875 2.59625 0.02125 1.3175 0 0 Z " fill="#601736" transform="translate(312,367)"/>
<path d="M0 0 C0.66 0 1.32 0 2 0 C2.57636092 4.26752342 3.14575095 8.53590474 3.70898438 12.80517578 C3.90112866 14.25431767 4.09510281 15.70321825 4.29101562 17.15185547 C4.57395134 19.2464459 4.85007009 21.3418455 5.125 23.4375 C5.37636719 25.32275391 5.37636719 25.32275391 5.6328125 27.24609375 C6.02228203 31.22779821 6.13048064 35.00294317 6 39 C5 40 5 40 1.39819336 40.11352539 C-0.20459856 40.11336625 -1.8073956 40.10767063 -3.41015625 40.09765625 C-4.25219101 40.0962413 -5.09422577 40.09482635 -5.96177673 40.09336853 C-8.66205335 40.08775263 -11.36224828 40.07519748 -14.0625 40.0625 C-15.88867068 40.05748705 -17.71484266 40.05292379 -19.54101562 40.04882812 C-24.02737542 40.03777804 -28.51367384 40.02050279 -33 40 C-33 39.67 -33 39.34 -33 39 C-27.39 39 -21.78 39 -16 39 C-16.2475 36.40125 -16.2475 36.40125 -16.5 33.75 C-17.02936278 27.48711641 -17.10023102 21.2811441 -17 15 C-16.01 15 -15.02 15 -14 15 C-14 22.92 -14 30.84 -14 39 C-8.06 39 -2.12 39 4 39 C3.71125 37.10636719 3.4225 35.21273437 3.125 33.26171875 C2.74958325 30.7370411 2.37460662 28.21229798 2 25.6875 C1.80921875 24.44419922 1.6184375 23.20089844 1.421875 21.91992188 C0.33870818 14.55051907 -0.27711227 7.44835436 0 0 Z " fill="#A55A7B" transform="translate(478,369)"/>
<path d="M0 0 C0.99 0.33 1.98 0.66 3 1 C2.54496094 1.37511719 2.08992188 1.75023437 1.62109375 2.13671875 C-0.4843556 4.55671715 -1.05274401 6.73294158 -1.9375 9.8125 C-2.27136719 10.97007812 -2.60523438 12.12765625 -2.94921875 13.3203125 C-3.29597656 14.53460938 -3.64273437 15.74890625 -4 17 C-4.56654297 18.79050781 -4.56654297 18.79050781 -5.14453125 20.6171875 C-7.3024886 27.58670348 -8.60582219 33.69647691 -8 41 C-8.99 40.67 -9.98 40.34 -11 40 C-14.4202717 29.7391849 -11.27218133 17.6327034 -7 8 C-4.96362938 4.91599243 -2.81314628 2.39157969 0 0 Z " fill="#611636" transform="translate(299,367)"/>
<path d="M0 0 C0.33 0 0.66 0 1 0 C1.02553673 6.63451304 1.04294467 13.26901321 1.05493164 19.90356445 C1.0599335 22.15649896 1.0667371 24.40943026 1.07543945 26.66235352 C1.0876879 29.91683751 1.09326994 33.17127826 1.09765625 36.42578125 C1.10281754 37.41894852 1.10797882 38.41211578 1.11329651 39.43537903 C1.11381359 46.00858228 0.70377799 52.46500419 0 59 C-0.33 59 -0.66 59 -1 59 C-1.43531528 54.27250689 -1.86213049 49.54434291 -2.28173828 44.81542969 C-2.4250223 43.21334122 -2.5704603 41.61144365 -2.71826172 40.00976562 C-3.64319739 29.96760689 -4.22027866 20.09406549 -4 10 C-2 13 -2 13 -1 15 C-0.67 10.05 -0.34 5.1 0 0 Z " fill="#E89EBB" transform="translate(463,336)"/>
<path d="M0 0 C1.97566188 1.97566188 2.89579072 3.52337094 4.125 6 C4.47820312 6.70125 4.83140625 7.4025 5.1953125 8.125 C6 10 6 10 6 12 C6.66 12.226875 7.32 12.45375 8 12.6875 C11.90742225 14.39699723 15.52421538 16.52468936 19 19 C19 19.33 19 19.66 19 20 C12.73 20 6.46 20 0 20 C0 13.4 0 6.8 0 0 Z " fill="#EBA2BB" transform="translate(505,363)"/>
<path d="M0 0 C0.33 0 0.66 0 1 0 C1 37.95 1 75.9 1 115 C0.34 115 -0.32 115 -1 115 C-1.33 106.42 -1.66 97.84 -2 89 C-1.67 89 -1.34 89 -1 89 C-0.67 59.63 -0.34 30.26 0 0 Z " fill="#D88EAB" transform="translate(274,215)"/>
<path d="M0 0 C0.66 0 1.32 0 2 0 C2 7.92 2 15.84 2 24 C11.57 24 21.14 24 31 24 C31 24.33 31 24.66 31 25 C21.43 25.33 11.86 25.66 2 26 C2.66 27.98 3.32 29.96 4 32 C3.05125 31.690625 2.1025 31.38125 1.125 31.0625 C-3.50938425 29.72071729 -8.20552041 29.36657993 -13 29 C-13 28.67 -13 28.34 -13 28 C-8.71 28 -4.42 28 0 28 C0 27.01 0 26.02 0 25 C-9.57 25 -19.14 25 -29 25 C-29 24.67 -29 24.34 -29 24 C-19.43 24 -9.86 24 0 24 C0 16.08 0 8.16 0 0 Z " fill="#D78FAC" transform="translate(242,306)"/>
<path d="M0 0 C0.99 0.33 1.98 0.66 3 1 C3.65370941 5.22798712 4.29646766 9.45757381 4.9375 13.6875 C5.11990234 14.86634766 5.30230469 16.04519531 5.49023438 17.25976562 C7.18306409 28.49399918 8.23093443 39.63289399 8 51 C7.34 51 6.68 51 6 51 C3.18104963 34.04871179 1.04817887 17.15703302 0 0 Z " fill="#B86C8D" transform="translate(308,226)"/>
<path d="M0 0 C13.2 0 26.4 0 40 0 C40 0.33 40 0.66 40 1 C34.06 1 28.12 1 22 1 C22.28875 2.96582031 22.5775 4.93164062 22.875 6.95703125 C23.15354813 8.89990447 23.43203757 10.84278654 23.70898438 12.78588867 C23.9933567 14.76623658 24.285647 16.74544236 24.578125 18.72460938 C25.63922177 26.20913122 26.28389804 33.44022893 26 41 C20.93707235 35.93707235 21.57681474 25.7114275 20.875 18.875 C20.78734375 18.02824707 20.6996875 17.18149414 20.609375 16.30908203 C20.52945312 15.48263184 20.44953125 14.65618164 20.3671875 13.8046875 C20.29612793 13.07233887 20.22506836 12.33999023 20.15185547 11.58544922 C19.94494649 8.06267422 20 4.52884613 20 1 C13.4 1 6.8 1 0 1 C0 0.67 0 0.34 0 0 Z " fill="#CB82A0" transform="translate(464,335)"/>
<path d="M0 0 C0.66 0 1.32 0 2 0 C3.29485761 3.88457282 3.51302341 7.75867227 3.875 11.8125 C4.67787214 20.4113081 5.75652887 28.9465633 7.03466797 37.48754883 C7.79235427 42.72358048 8.13535692 47.70877494 8 53 C7.01 53 6.02 53 5 53 C4.44477315 47.86328349 3.89362655 42.72614978 3.34594727 37.58862305 C3.15984145 35.84794856 2.97270024 34.1073844 2.78442383 32.36694336 C1.61899 21.58590351 0.61366877 10.82782174 0 0 Z " fill="#BF7496" transform="translate(298,267)"/>
<path d="M0 0 C0.99 0 1.98 0 3 0 C3.17549462 10.80632477 2.62175761 21.52876112 2 32.3125 C1.90331544 34.03578879 1.80695907 35.75909602 1.7109375 37.48242188 C1.47773351 41.65516979 1.2401172 45.82764443 1 50 C0.67 50 0.34 50 0 50 C-0.33 47.03 -0.66 44.06 -1 41 C-1.33 41 -1.66 41 -2 41 C-1.93941406 39.79988281 -1.87882813 38.59976563 -1.81640625 37.36328125 C-1.18969884 24.90983584 -0.58775207 12.45534176 0 0 Z " fill="#CB80A1" transform="translate(518,267)"/>
<path d="M0 0 C3 3 3 3 3.328125 5.8828125 C3.30234375 6.95273437 3.2765625 8.02265625 3.25 9.125 C3.23453125 10.20007813 3.2190625 11.27515625 3.203125 12.3828125 C3 15 3 15 2 16 C0.31816052 16.23287008 -1.3712416 16.41264166 -3.0625 16.5625 C-4.44115234 16.68818359 -4.44115234 16.68818359 -5.84765625 16.81640625 C-6.55792969 16.87699219 -7.26820313 16.93757813 -8 17 C-7.67 18.65 -7.34 20.3 -7 22 C-11.04334814 20.77759242 -14.50639197 19.39561694 -18 17 C-19.26237731 14.47524538 -19.09856404 12.68799534 -19.0625 9.875 C-19.05347656 8.96492188 -19.04445313 8.05484375 -19.03515625 7.1171875 C-19.02355469 6.41851562 -19.01195312 5.71984375 -19 5 C-18.34 5 -17.68 5 -17 5 C-17 7.97 -17 10.94 -17 14 C-11.06 14 -5.12 14 1 14 C0.67 9.38 0.34 4.76 0 0 Z " fill="#D28AA7" transform="translate(543,346)"/>
<path d="M0 0 C0.33 0 0.66 0 1 0 C1 3.3 1 6.6 1 10 C12.88 10 24.76 10 37 10 C37 10.33 37 10.66 37 11 C25.78 11 14.56 11 3 11 C3.495 12.98 3.495 12.98 4 15 C1.69 15.33 -0.62 15.66 -3 16 C-3 15.01 -3 14.02 -3 13 C-6.17509982 11.94163339 -8.64282383 11.79756211 -11.98046875 11.68359375 C-13.14384766 11.64169922 -14.30722656 11.59980469 -15.50585938 11.55664062 C-17.32827148 11.49766602 -17.32827148 11.49766602 -19.1875 11.4375 C-20.41404297 11.39431641 -21.64058594 11.35113281 -22.90429688 11.30664062 C-25.93608381 11.2004691 -28.96795315 11.09842048 -32 11 C-32 10.67 -32 10.34 -32 10 C-21.44 10 -10.88 10 0 10 C0 6.7 0 3.4 0 0 Z " fill="#DC95B0" transform="translate(339,320)"/>
<path d="M0 0 C2.97 0 5.94 0 9 0 C9.08078777 3.43796837 9.14039791 6.87404727 9.1875 10.3125 C9.22520508 11.77719727 9.22520508 11.77719727 9.26367188 13.27148438 C9.27817383 14.67817383 9.27817383 14.67817383 9.29296875 16.11328125 C9.31653442 17.40939331 9.31653442 17.40939331 9.34057617 18.73168945 C9 21 9 21 6 24 C6 18.06 6 12.12 6 6 C2.0285831 6.62841973 2.0285831 6.62841973 0 9 C0 6.03 0 3.06 0 0 Z " fill="#F2ABC6" transform="translate(390,353)"/>
<path d="M0 0 C0.66 0 1.32 0 2 0 C3.61603901 16.70838209 4.28063443 33.21590224 4 50 C3.67 50 3.34 50 3 50 C3 46.7 3 43.4 3 40 C2.34 40 1.68 40 1 40 C0.67 26.8 0.34 13.6 0 0 Z " fill="#D68BAB" transform="translate(491,267)"/>
<path d="M0 0 C4.62 0 9.24 0 14 0 C14 0.33 14 0.66 14 1 C10.37 1 6.74 1 3 1 C3 1.66 3 2.32 3 3 C12.57 3.33 22.14 3.66 32 4 C32 4.33 32 4.66 32 5 C22.43 5 12.86 5 3 5 C3 6.98 3 8.96 3 11 C2.67 11 2.34 11 2 11 C2 9.02 2 7.04 2 5 C-10.54 5 -23.08 5 -36 5 C-36 4.67 -36 4.34 -36 4 C-34.73724243 3.96241577 -34.73724243 3.96241577 -33.44897461 3.92407227 C-30.29733856 3.82839721 -27.14583774 3.72919924 -23.99438477 3.62768555 C-22.6357042 3.58462706 -21.27697959 3.54293435 -19.91821289 3.50268555 C-17.95447697 3.44427107 -15.99090636 3.38038197 -14.02734375 3.31640625 C-12.84906006 3.27974854 -11.67077637 3.24309082 -10.45678711 3.20532227 C-6.92711235 2.9956707 -3.49181389 2.5478502 0 2 C0 1.34 0 0.68 0 0 Z " fill="#C7809C" transform="translate(426,331)"/>
<path d="M0 0 C10.77860327 4.32986627 10.77860327 4.32986627 13 8 C13.31275743 11.36081715 13.23111174 14.63604019 13 18 C12.67 18 12.34 18 12 18 C12 15.03 12 12.06 12 9 C5.73 9 -0.54 9 -7 9 C-6.67 13.62 -6.34 18.24 -6 23 C-6.66 23.33 -7.32 23.66 -8 24 C-8.33 24.99 -8.66 25.98 -9 27 C-9.66 26.67 -10.32 26.34 -11 26 C-10.68289062 25.31550781 -10.36578125 24.63101562 -10.0390625 23.92578125 C-8.85883043 20.60249621 -8.58802755 17.70245465 -8.375 14.1875 C-8.30023438 13.02605469 -8.22546875 11.86460937 -8.1484375 10.66796875 C-8.09945312 9.78753906 -8.05046875 8.90710938 -8 8 C-4.7 7.67 -1.4 7.34 2 7 C2.33 6.01 2.66 5.02 3 4 C2.01 3.34 1.02 2.68 0 2 C0 1.34 0 0.68 0 0 Z " fill="#C37898" transform="translate(222,375)"/>
<path d="M0 0 C0.33 0 0.66 0 1 0 C1 9.24 1 18.48 1 28 C-3.99688901 29.99875561 -7.1560271 30.0858108 -12.3125 29.625 C-13.05306641 29.56828125 -13.79363281 29.5115625 -14.55664062 29.453125 C-16.37193743 29.31258589 -18.18611597 29.15772905 -20 29 C-20 28.67 -20 28.34 -20 28 C-14.06 28 -8.12 28 -2 28 C-2.04125 25.6075 -2.0825 23.215 -2.125 20.75 C-2.18473562 13.66040131 -1.47445085 6.9509826 0 0 Z " fill="#D990B0" transform="translate(517,302)"/>
<path d="M0 0 C0.66 0 1.32 0 2 0 C2.57636092 4.26752342 3.14575095 8.53590474 3.70898438 12.80517578 C3.90112866 14.25431767 4.09510281 15.70321825 4.29101562 17.15185547 C4.57395134 19.2464459 4.85007009 21.3418455 5.125 23.4375 C5.29257812 24.69433594 5.46015625 25.95117188 5.6328125 27.24609375 C6.02062944 31.21090307 6.06170681 35.01991098 6 39 C5.01 39.495 5.01 39.495 4 40 C3.42030204 36.07277755 2.85115995 32.14417154 2.29101562 28.21411133 C2.0066433 26.23376342 1.714353 24.25455764 1.421875 22.27539062 C0.36077823 14.79086878 -0.28389804 7.55977107 0 0 Z " fill="#C3779B" transform="translate(478,369)"/>
<path d="M0 0 C6.27 0 12.54 0 19 0 C18.01 1.485 18.01 1.485 17 3 C16.34 3 15.68 3 15 3 C14.67 4.32 14.34 5.64 14 7 C6.78852459 6.31967213 6.78852459 6.31967213 4 3 C1.90010348 1.82425289 1.90010348 1.82425289 0 1 C0 0.67 0 0.34 0 0 Z " fill="#F1AAC6" transform="translate(127,255)"/>
<path d="M0 0 C0.33 0 0.66 0 1 0 C1.75555403 8.36506246 2.10119771 16.60059013 2 25 C7.61 25 13.22 25 19 25 C19.33 23.68 19.66 22.36 20 21 C20 22.65 20 24.3 20 26 C13.07 26 6.14 26 -1 26 C-2.15483871 14.4516129 -2.15483871 14.4516129 -2.1875 9.0625 C-2.20167969 7.98097656 -2.21585937 6.89945312 -2.23046875 5.78515625 C-2 3 -2 3 0 0 Z " fill="#A95F7F" transform="translate(495,304)"/>
<path d="M0 0 C0.33 0.99 0.66 1.98 1 3 C1.66 2.01 2.32 1.02 3 0 C4.9375 0.375 4.9375 0.375 7 1 C7.33 1.66 7.66 2.32 8 3 C10.01669827 4.13350534 10.01669827 4.13350534 12 5 C11.34 5 10.68 5 10 5 C10 6.32 10 7.64 10 9 C6.7 9 3.4 9 0 9 C0 6.03 0 3.06 0 0 Z " fill="#E89DBA" transform="translate(215,374)"/>
<path d="M0 0 C0.99 0.33 1.98 0.66 3 1 C2.01 1.33 1.02 1.66 0 2 C-0.95875046 4.46143484 -0.95875046 4.46143484 -1.5625 7.375 C-2.38345773 10.8907399 -2.97116154 12.95674231 -5 16 C-5.66 16 -6.32 16 -7 16 C-7.66 17.98 -8.32 19.96 -9 22 C-11.12690274 16.31435804 -8.24901337 10.29455231 -6 5 C-4.09372676 2.4632666 -2.83413128 1.5678173 0 0 Z " fill="#621836" transform="translate(336,350)"/>
<path d="M0 0 C0.33 0 0.66 0 1 0 C1.05802698 3.43742918 1.09360486 6.87473253 1.125 10.3125 C1.15013672 11.77719727 1.15013672 11.77719727 1.17578125 13.27148438 C1.18222656 14.20927734 1.18867188 15.14707031 1.1953125 16.11328125 C1.20578613 16.97735596 1.21625977 17.84143066 1.22705078 18.73168945 C1 21 1 21 -1 24 C-1.4603764 27.19806665 -1.4603764 27.19806665 -1.625 30.6875 C-1.69976562 31.86699219 -1.77453125 33.04648437 -1.8515625 34.26171875 C-1.90054687 35.16535156 -1.94953125 36.06898438 -2 37 C-2.33 37 -2.66 37 -3 37 C-3.83930594 27.97746114 -4.12224626 19.0598059 -4 10 C-2 13 -2 13 -1 15 C-0.67 10.05 -0.34 5.1 0 0 Z " fill="#D48AA8" transform="translate(463,336)"/>
<path d="M0 0 C0.66 0 1.32 0 2 0 C2.38829158 5.95380424 1.55199934 11.55319543 -1 17 C-3.109375 18.796875 -3.109375 18.796875 -5 20 C-4.74378181 12.31345427 -3.96313504 6.64783942 0 0 Z " fill="#510827" transform="translate(329,365)"/>
<path d="M0 0 C0.99 0.33 1.98 0.66 3 1 C3.01030746 1.61530075 3.02061493 2.2306015 3.03123474 2.86454773 C3.13946955 9.2723517 3.25405363 15.68001987 3.37231445 22.08764648 C3.41560886 24.47856808 3.45728782 26.86951951 3.49731445 29.26049805 C3.55514994 32.69849635 3.61880641 36.13634529 3.68359375 39.57421875 C3.70030624 40.64210129 3.71701874 41.70998383 3.73423767 42.81022644 C3.75418289 43.81088638 3.77412811 44.81154633 3.79467773 45.8425293 C3.81799416 47.15824165 3.81799416 47.15824165 3.84178162 48.50053406 C4.00480305 51.07587652 4.43719881 53.4842556 5 56 C3.68 55.67 2.36 55.34 1 55 C1.00222061 54.38469925 1.00444122 53.7693985 1.00672913 53.13545227 C1.02886348 46.72775859 1.04394069 40.32007579 1.05493164 33.91235352 C1.0599584 31.52139851 1.06678075 29.13044657 1.07543945 26.73950195 C1.08757747 23.30158734 1.09324492 19.86371339 1.09765625 16.42578125 C1.10281754 15.35789871 1.10797882 14.29001617 1.11329651 13.18977356 C1.11337204 12.18911362 1.11344757 11.18845367 1.11352539 10.1574707 C1.115746 9.28032913 1.11796661 8.40318756 1.12025452 7.49946594 C0.99577809 4.91224853 0.57111904 2.52321004 0 0 Z " fill="#DB90B1" transform="translate(172,344)"/>
<path d="M0 0 C4.62 0 9.24 0 14 0 C14 4.95 14 9.9 14 15 C13.34 15 12.68 15 12 15 C12 11.37 12 7.74 12 4 C10.39125 3.855625 8.7825 3.71125 7.125 3.5625 C2.25 3.125 2.25 3.125 0 2 C0 1.34 0 0.68 0 0 Z " fill="#F2ABC6" transform="translate(158,241)"/>
<path d="M0 0 C0 4.95 0 9.9 0 15 C2.97 15 5.94 15 9 15 C9 15.33 9 15.66 9 16 C6.03 16 3.06 16 0 16 C0 18.64 0 21.28 0 24 C-0.33 24 -0.66 24 -1 24 C-1.05607422 22.58847656 -1.05607422 22.58847656 -1.11328125 21.1484375 C-1.17902344 19.90320313 -1.24476563 18.65796875 -1.3125 17.375 C-1.39951172 15.53035156 -1.39951172 15.53035156 -1.48828125 13.6484375 C-2.21247014 8.48513656 -4.00466527 4.42457262 -8 1 C-5 0 -5 0 0 0 Z " fill="#DB91B0" transform="translate(390,337)"/>
<path d="M0 0 C0.66 0 1.32 0 2 0 C2 3.3 2 6.6 2 10 C7.61 10 13.22 10 19 10 C19 10.33 19 10.66 19 11 C15.37 11 11.74 11 8 11 C8 11.66 8 12.32 8 13 C8.66 13.33 9.32 13.66 10 14 C9.67 14.66 9.34 15.32 9 16 C5.54418991 14.75206858 2.65943762 13.56928719 0 11 C-0.390625 8.30078125 -0.390625 8.30078125 -0.25 5.3125 C-0.21390625 4.31863281 -0.1778125 3.32476562 -0.140625 2.30078125 C-0.09421875 1.54152344 -0.0478125 0.78226562 0 0 Z " fill="#DD94B4" transform="translate(369,351)"/>
<path d="M0 0 C3.63 0 7.26 0 11 0 C10.01 2.97 9.02 5.94 8 9 C5.6875 8.4375 5.6875 8.4375 3 7 C1.65223022 4.72037377 0.88635784 2.51912228 0 0 Z " fill="#F3ACC7" transform="translate(243,331)"/>
<path d="M0 0 C2.64 0 5.28 0 8 0 C8 1.98 8 3.96 8 6 C6.02 6 4.04 6 2 6 C1.67 9.96 1.34 13.92 1 18 C0.67 18 0.34 18 0 18 C0 12.06 0 6.12 0 0 Z " fill="#F6AEC7" transform="translate(419,353)"/>
<path d="M0 0 C0.99 0 1.98 0 3 0 C3.13500337 9.73524288 2.7609241 19.29821771 2 29 C1.67 29 1.34 29 1 29 C0.67 26.03 0.34 23.06 0 20 C-0.33 20 -0.66 20 -1 20 C-0.67 13.4 -0.34 6.8 0 0 Z " fill="#B4698A" transform="translate(517,288)"/>
<path d="M0 0 C0.66 0 1.32 0 2 0 C5.0879956 9.26398679 4.14457114 20.32979681 4 30 C3.67 30 3.34 30 3 30 C2.49384729 26.12577792 1.99617279 22.25051183 1.5 18.375 C1.35691406 17.28058594 1.21382813 16.18617188 1.06640625 15.05859375 C0.93105469 13.99511719 0.79570312 12.93164062 0.65625 11.8359375 C0.53056641 10.86188965 0.40488281 9.8878418 0.27539062 8.88427734 C-0.00906019 5.90510895 -0.04655007 2.99084203 0 0 Z " fill="#CA7EA1" transform="translate(298,267)"/>
<path d="M0 0 C0.33 0 0.66 0 1 0 C1.19477739 1.62414378 1.38059458 3.24936423 1.5625 4.875 C1.66691406 5.77992188 1.77132813 6.68484375 1.87890625 7.6171875 C2 10 2 10 1 12 C2.32 11.67 3.64 11.34 5 11 C5 11.99 5 12.98 5 14 C5.66 14.33 6.32 14.66 7 15 C6.01 15.495 6.01 15.495 5 16 C4.34786708 18.02463255 4.34786708 18.02463255 4 20 C2.68 20 1.36 20 0 20 C0 13.4 0 6.8 0 0 Z " fill="#EFA6C3" transform="translate(505,363)"/>
<path d="M0 0 C0.66 1.32 1.32 2.64 2 4 C4.31 4 6.62 4 9 4 C8.67 4.99 8.34 5.98 8 7 C5.03 7 2.06 7 -1 7 C-0.7525 7.721875 -0.505 8.44375 -0.25 9.1875 C0 12 0 12 -1.9375 14.8125 C-2.618125 15.534375 -3.29875 16.25625 -4 17 C-2 4 -2 4 0 0 Z " fill="#D88FA9" transform="translate(333,361)"/>
<path d="M0 0 C1.65 0 3.3 0 5 0 C5 4.95 5 9.9 5 15 C3 11 3 11 3 9 C2.34 9 1.68 9 1 9 C0.01 6.69 -0.98 4.38 -2 2 C-1.34 2 -0.68 2 0 2 C0 1.34 0 0.68 0 0 Z " fill="#DC94AF" transform="translate(460,219)"/>
<path d="M0 0 C1.33333333 0 2.66666667 0 4 0 C4 4.95 4 9.9 4 15 C3.01 15.495 3.01 15.495 2 16 C-0.27141454 10.60539047 -0.20413361 5.73842251 0 0 Z " fill="#EBA5C1" transform="translate(459,336)"/>
<path d="M0 0 C1.0625 1.8125 1.0625 1.8125 2 4 C1.67 4.99 1.34 5.98 1 7 C-2.63 7 -6.26 7 -10 7 C-9.67 6.01 -9.34 5.02 -9 4 C-9.99 4.33 -10.98 4.66 -12 5 C-12 4.34 -12 3.68 -12 3 C-8.37 3 -4.74 3 -1 3 C-0.67 2.01 -0.34 1.02 0 0 Z " fill="#F2ABC5" transform="translate(204,328)"/>
<path d="M0 0 C0 0.66 0 1.32 0 2 C0.66 2 1.32 2 2 2 C2 2.66 2 3.32 2 4 C-6.57142857 4.14285714 -6.57142857 4.14285714 -10 3 C-10 1.68 -10 0.36 -10 -1 C-6.18510326 -2.46726798 -3.70988378 -1.43336419 0 0 Z " fill="#F0AAC7" transform="translate(148,331)"/>
<path d="M0 0 C2.31 0.33 4.62 0.66 7 1 C6.814375 1.598125 6.62875 2.19625 6.4375 2.8125 C5.77906313 5.16408762 5.77906313 5.16408762 7 8 C4.69 8 2.38 8 0 8 C0 5.36 0 2.72 0 0 Z " fill="#F5ACC7" transform="translate(275,353)"/>
<path d="M0 0 C5.94 0.33 11.88 0.66 18 1 C17.67 1.66 17.34 2.32 17 3 C13.38132441 4.2062252 10.07493749 4.10816918 6.3125 4.0625 C5.61060547 4.05798828 4.90871094 4.05347656 4.18554688 4.04882812 C2.45699462 4.03706927 0.72848635 4.01913454 -1 4 C-0.34 3.34 0.32 2.68 1 2 C0.67 1.34 0.34 0.68 0 0 Z " fill="#E39CB8" transform="translate(117,331)"/>
<path d="M0 0 C0 0.33 0 0.66 0 1 C-6.6 1 -13.2 1 -20 1 C-20 1.66 -20 2.32 -20 3 C-20.99 2.67 -21.98 2.34 -23 2 C-24.33363703 1.85596652 -25.67218046 1.75409577 -27.01171875 1.68359375 C-28.14770508 1.62075195 -28.14770508 1.62075195 -29.30664062 1.55664062 C-30.48516602 1.49766602 -30.48516602 1.49766602 -31.6875 1.4375 C-32.48478516 1.39431641 -33.28207031 1.35113281 -34.10351562 1.30664062 C-36.06881447 1.20072632 -38.03438496 1.09987449 -40 1 C-40 0.67 -40 0.34 -40 0 C-26.56197991 -0.99825292 -13.44423703 -0.86952777 0 0 Z " fill="#DE95B2" transform="translate(504,409)"/>
<path d="M0 0 C0.99 0 1.98 0 3 0 C4.75 2.25 4.75 2.25 6 5 C5.6875 7.3125 5.6875 7.3125 5 9 C3.35 9.33 1.7 9.66 0 10 C0 6.7 0 3.4 0 0 Z " fill="#F1A9C6" transform="translate(275,382)"/>
<path d="M0 0 C2 2 2 2 2.1953125 5.2578125 C2.16050781 7.17207031 2.16050781 7.17207031 2.125 9.125 C2.10695313 10.40632813 2.08890625 11.68765625 2.0703125 13.0078125 C2.04710937 13.99523437 2.02390625 14.98265625 2 16 C1.01 15.67 0.02 15.34 -1 15 C-2.50913724 10.47258828 -2.77429281 5.93573202 -1 1.5 C-0.67 1.005 -0.34 0.51 0 0 Z " fill="#530B29" transform="translate(289,392)"/>
<path d="M0 0 C0.99 0 1.98 0 3 0 C3.88021369 6.71162938 4.11381955 13.23405981 4 20 C0.36915179 16.36915179 0.13101209 10.55473568 -0.125 5.5625 C-0.125 3.70786523 -0.06864311 1.85336404 0 0 Z " fill="#984C6E" transform="translate(486,356)"/>
<path d="M0 0 C0.66 0.33 1.32 0.66 2 1 C2 1.66 2 2.32 2 3 C2.66 3 3.32 3 4 3 C4.33 4.32 4.66 5.64 5 7 C5.66 7 6.32 7 7 7 C7 7.66 7 8.32 7 9 C4.125 9.125 4.125 9.125 1 9 C0.34 8.34 -0.32 7.68 -1 7 C-0.625 3.375 -0.625 3.375 0 0 Z " fill="#F3ACC8" transform="translate(292,399)"/>
<path d="M0 0 C0.66 0 1.32 0 2 0 C2 2.97 2 5.94 2 9 C7.94 9 13.88 9 20 9 C20 9.33 20 9.66 20 10 C14.06 10 8.12 10 2 10 C1.67 10.66 1.34 11.32 1 12 C-0.26237731 9.47524538 -0.09856404 7.68799534 -0.0625 4.875 C-0.05347656 3.96492188 -0.04445313 3.05484375 -0.03515625 2.1171875 C-0.02355469 1.41851562 -0.01195312 0.71984375 0 0 Z " fill="#A05578" transform="translate(524,351)"/>
<path d="M0 0 C2.875 0.25 2.875 0.25 6 1 C8.24329772 3.85510619 8.19667385 6.45987077 8 10 C4.20401451 8.50871999 2.28279601 6.34266559 0 3 C0 2.01 0 1.02 0 0 Z " fill="#F3A8C6" transform="translate(167,335)"/>
<path d="M0 0 C0.66 1.32 1.32 2.64 2 4 C2.66 4 3.32 4 4 4 C2.33248852 7.94139078 -0.22710649 10.7892812 -3 14 C-3.99 13.67 -4.98 13.34 -6 13 C-5.071875 12.01 -5.071875 12.01 -4.125 11 C-1.50125518 7.29588966 -0.89913658 4.42075485 0 0 Z " fill="#671E3A" transform="translate(307,394)"/>
<path d="M0 0 C0.33 0 0.66 0 1 0 C1.33 4.62 1.66 9.24 2 14 C2.33 14 2.66 14 3 14 C3 15.65 3 17.3 3 19 C1.68 19.33 0.36 19.66 -1 20 C-1 19.67 -1 19.34 -1 19 C-3.31 18.67 -5.62 18.34 -8 18 C-8 17.67 -8 17.34 -8 17 C-5.36 17 -2.72 17 0 17 C0 11.39 0 5.78 0 0 Z " fill="#D68FA9" transform="translate(282,362)"/>
<path d="M0 0 C0.5534764 2.07553648 1 3.84365964 1 6 C1.99 5.67 2.98 5.34 4 5 C3.67 6.65 3.34 8.3 3 10 C2.01 10 1.02 10 0 10 C-0.33 10.99 -0.66 11.98 -1 13 C-1 12.01 -1 11.02 -1 10 C-1.66 10 -2.32 10 -3 10 C-2.25 3.375 -2.25 3.375 0 0 Z M-1 4 C0 8 0 8 0 8 Z " fill="#F6ADC7" transform="translate(317,382)"/>
<path d="M0 0 C0.33 0 0.66 0 1 0 C1 4.29 1 8.58 1 13 C-1.38459073 10.01926159 -3.73151861 7.06244988 -6 4 C-3 3 -3 3 -2 3 C-1.34 2.01 -0.68 1.02 0 0 Z " fill="#E097B5" transform="translate(253,365)"/>
<path d="M0 0 C0.33 0 0.66 0 1 0 C1.13277344 0.81984375 1.26554687 1.6396875 1.40234375 2.484375 C1.57894531 3.56203125 1.75554687 4.6396875 1.9375 5.75 C2.11152344 6.81734375 2.28554688 7.8846875 2.46484375 8.984375 C2.88704171 11.36347593 3.37202884 13.66915211 4 16 C3.34 16.33 2.68 16.66 2 17 C1.34444881 19.52733235 1.34444881 19.52733235 1 22 C0.67 22 0.34 22 0 22 C0 14.74 0 7.48 0 0 Z " fill="#DD92B2" transform="translate(504,386)"/>
<path d="M0 0 C1.65 0 3.3 0 5 0 C4.34 4.62 3.68 9.24 3 14 C2.67 14 2.34 14 2 14 C1.34 9.38 0.68 4.76 0 0 Z " fill="#D58DA9" transform="translate(322,365)"/>
<path d="M0 0 C0.73734375 -0.01224609 1.4746875 -0.02449219 2.234375 -0.03710938 C4.15770058 -0.04237395 6.08054263 0.06546553 8 0.1875 C8.66 0.8475 9.32 1.5075 10 2.1875 C8.86820313 2.17589844 7.73640625 2.16429687 6.5703125 2.15234375 C5.08854331 2.14296546 3.60677235 2.1338653 2.125 2.125 C1.37863281 2.11662109 0.63226563 2.10824219 -0.13671875 2.09960938 C-4.19845578 1.98061916 -4.19845578 1.98061916 -8 3.1875 C-8 4.1775 -8 5.1675 -8 6.1875 C-10.97 5.6925 -10.97 5.6925 -14 5.1875 C-9.32806869 0.35983764 -6.59289603 0.00576302 0 0 Z " fill="#792F51" transform="translate(154,334.8125)"/>
<path d="M0 0 C0.33 0.66 0.66 1.32 1 2 C0.67 2.99 0.34 3.98 0 5 C0.66 5 1.32 5 2 5 C2 4.34 2 3.68 2 3 C2.99 3 3.98 3 5 3 C5.33 4.98 5.66 6.96 6 9 C3.03 8.01 0.06 7.02 -3 6 C-2.625 3.5625 -2.625 3.5625 -2 1 C-1.34 0.67 -0.68 0.34 0 0 Z " fill="#F1ABC5" transform="translate(210,328)"/>
<path d="M0 0 C3.96 0 7.92 0 12 0 C12.33 0.99 12.66 1.98 13 3 C9.61725734 4.12758089 8.23221777 3.81750262 4.8125 3.0625 C3.91144531 2.86785156 3.01039063 2.67320312 2.08203125 2.47265625 C1.39496094 2.31667969 0.70789063 2.16070312 0 2 C0 1.34 0 0.68 0 0 Z " fill="#F2ACC6" transform="translate(230,331)"/>
<path d="M0 0 C3.37703759 6.4520637 3.12675431 12.87359127 3 20 C2.34 20 1.68 20 1 20 C0.11978631 13.28837062 -0.11381955 6.76594019 0 0 Z " fill="#CF83A6" transform="translate(313,257)"/>
<path d="M0 0 C0 0.99 0 1.98 0 3 C-4.23174053 6.59950838 -8.35796696 6.42485139 -13.625 6.3125 C-14.388125 6.31572266 -15.15125 6.31894531 -15.9375 6.32226562 C-19.79550768 6.28503924 -21.72424794 6.18383471 -25 4 C-23.17275391 4.06960938 -23.17275391 4.06960938 -21.30859375 4.140625 C-19.68492052 4.17816658 -18.06122055 4.21456417 -16.4375 4.25 C-15.23770508 4.30027344 -15.23770508 4.30027344 -14.01367188 4.3515625 C-8.14109807 4.44744126 -4.85777258 3.31241405 0 0 Z " fill="#B46A89" transform="translate(209,404)"/>
<path d="M0 0 C0.66 0 1.32 0 2 0 C3.32 2.31 4.64 4.62 6 7 C5.34 7 4.68 7 4 7 C3.67 7.66 3.34 8.32 3 9 C3 8.34 3 7.68 3 7 C2.34 6.67 1.68 6.34 1 6 C0.01 6.33 -0.98 6.66 -2 7 C-2.66 6.67 -3.32 6.34 -4 6 C-4 5.34 -4 4.68 -4 4 C-3.01 4 -2.02 4 -1 4 C-0.67 2.68 -0.34 1.36 0 0 Z " fill="#DC91B0" transform="translate(214,398)"/>
<path d="M0 0 C5.75 0.75 5.75 0.75 8 3 C8.1953125 5.3828125 8.1953125 5.3828125 8.125 8.125 C8.10695312 9.03507812 8.08890625 9.94515625 8.0703125 10.8828125 C8.04710937 11.58148438 8.02390625 12.28015625 8 13 C7.67 13 7.34 13 7 13 C7 10.03 7 7.06 7 4 C4.36 4 1.72 4 -1 4 C-0.67 2.68 -0.34 1.36 0 0 Z " fill="#DE93B4" transform="translate(227,380)"/>
<path d="M0 0 C0.33 0 0.66 0 1 0 C1.33 2.64 1.66 5.28 2 8 C6.95 8.33 11.9 8.66 17 9 C17 9.33 17 9.66 17 10 C11.555 10.495 11.555 10.495 6 11 C6 11.66 6 12.32 6 13 C1.125 11.125 1.125 11.125 0 10 C-0.07205511 8.31391034 -0.08386068 6.62499341 -0.0625 4.9375 C-0.05347656 4.01839844 -0.04445312 3.09929687 -0.03515625 2.15234375 C-0.02355469 1.44207031 -0.01195312 0.73179687 0 0 Z " fill="#DB90B1" transform="translate(234,352)"/>
<path d="M0 0 C0.66 0 1.32 0 2 0 C3.33257403 12.66970387 3.33257403 12.66970387 2 18 C1.67 18 1.34 18 1 18 C-0.0712828 11.97403427 -0.09945415 6.11090483 0 0 Z " fill="#9B4F74" transform="translate(478,369)"/>
<path d="M0 0 C0.66 0 1.32 0 2 0 C2 5.94 2 11.88 2 18 C-0.32197421 14.51703868 -0.40590968 12.56903016 -0.6875 8.4375 C-0.77386719 7.28121094 -0.86023438 6.12492187 -0.94921875 4.93359375 C-1 2 -1 2 0 0 Z " fill="#F2AAC6" transform="translate(348,348)"/>
<path d="M0 0 C7.59 0 15.18 0 23 0 C23 0.33 23 0.66 23 1 C22.28972656 1.06058594 21.57945312 1.12117188 20.84765625 1.18359375 C19.92855469 1.26738281 19.00945312 1.35117187 18.0625 1.4375 C17.14597656 1.51871094 16.22945313 1.59992188 15.28515625 1.68359375 C13.03840268 1.76044976 13.03840268 1.76044976 12 3 C10.00041636 3.04080783 7.99954746 3.04254356 6 3 C6 2.67 6 2.34 6 2 C3.03 1.505 3.03 1.505 0 1 C0 0.67 0 0.34 0 0 Z " fill="#F5AFC8" transform="translate(355,331)"/>
<path d="M0 0 C0.99 0 1.98 0 3 0 C2.75 1.875 2.75 1.875 2 4 C-1.35293415 6.27746471 -4.27842863 6.21133851 -8.25 6.125 C-9.32765625 6.10695313 -10.4053125 6.08890625 -11.515625 6.0703125 C-12.33546875 6.04710937 -13.1553125 6.02390625 -14 6 C-14 5.67 -14 5.34 -14 5 C-7.565 4.505 -7.565 4.505 -1 4 C-0.67 2.68 -0.34 1.36 0 0 Z " fill="#722848" transform="translate(378,404)"/>
<path d="M0 0 C7.38461538 -0.49230769 7.38461538 -0.49230769 10.5 2 C10.995 2.66 11.49 3.32 12 4 C10.741875 4.04125 9.48375 4.0825 8.1875 4.125 C7.47980469 4.14820313 6.77210938 4.17140625 6.04296875 4.1953125 C4 4 4 4 1 2 C0.67 1.34 0.34 0.68 0 0 Z " fill="#F0A6C2" transform="translate(512,379)"/>
<path d="M0 0 C0 0.66 0 1.32 0 2 C-0.99 2 -1.98 2 -3 2 C-3.66 5.63 -4.32 9.26 -5 13 C-5.33 12.01 -5.66 11.02 -6 10 C-6.99 10 -7.98 10 -9 10 C-7.6834994 5.81113445 -4.97532335 0 0 0 Z " fill="#671D3E" transform="translate(516,336)"/>
<path d="M0 0 C2.79872437 2.52788007 4.45773019 4.20411134 5 8 C4.01 8.33 3.02 8.66 2 9 C2 8.34 2 7.68 2 7 C1.01 7.33 0.02 7.66 -1 8 C-1.33 5.69 -1.66 3.38 -2 1 C-1.34 0.67 -0.68 0.34 0 0 Z " fill="#F3ADC6" transform="translate(98,319)"/>
<path d="M0 0 C1.32 0 2.64 0 4 0 C4 2.31 4 4.62 4 7 C2.35 7 0.7 7 -1 7 C-0.67 4.69 -0.34 2.38 0 0 Z " fill="#651D3A" transform="translate(318,402)"/>
<path d="M0 0 C0.33 0 0.66 0 1 0 C1.27720876 2.39544524 1.52225728 4.78727034 1.75 7.1875 C1.83121094 7.86103516 1.91242188 8.53457031 1.99609375 9.22851562 C2.48754588 14.8256093 1.85756959 15.17803801 -2 20 C-1.34 13.4 -0.68 6.8 0 0 Z " fill="#F3AAC8" transform="translate(390,382)"/>
<path d="M0 0 C0.66 0.33 1.32 0.66 2 1 C1.17812739 5.38332057 0.09845718 9.67940177 -1 14 C-1.66 14 -2.32 14 -3 14 C-3.33 11.69 -3.66 9.38 -4 7 C-3.01 6.34 -2.02 5.68 -1 5 C-0.27034634 2.43717258 -0.27034634 2.43717258 0 0 Z " fill="#F1AAC5" transform="translate(405,224)"/>
<path d="M0 0 C3.63 0.33 7.26 0.66 11 1 C11 1.66 11 2.32 11 3 C11.66 3.33 12.32 3.66 13 4 C12.34 4 11.68 4 11 4 C11.33 5.32 11.66 6.64 12 8 C8 5.33333333 4 2.66666667 0 0 Z " fill="#CC83A2" transform="translate(384,216)"/>
<path d="M0 0 C0.66 0 1.32 0 2 0 C2 3.3 2 6.6 2 10 C3.32 10.33 4.64 10.66 6 11 C4.02 11.99 4.02 11.99 2 13 C0 11 0 11 -0.1953125 8.3984375 C-0.17210937 7.40070313 -0.14890625 6.40296875 -0.125 5.375 C-0.10695313 4.37210937 -0.08890625 3.36921875 -0.0703125 2.3359375 C-0.04710937 1.56507813 -0.02390625 0.79421875 0 0 Z " fill="#BB7192" transform="translate(369,351)"/>
<path d="M0 0 C0.33 0 0.66 0 1 0 C2.15316726 6.34241995 2.09507063 12.56688704 2 19 C1.67 19 1.34 19 1 19 C-0.48725585 12.31349436 -1.27567351 6.76106962 0 0 Z " fill="#C27798" transform="translate(486,343)"/>
<path d="M0 0 C1.32 0 2.64 0 4 0 C4 1.98 4 3.96 4 6 C0.25 7.125 0.25 7.125 -2 6 C-2 4 -2 4 0 2 C0 1.34 0 0.68 0 0 Z " fill="#F4ACC7" transform="translate(307,375)"/>
<path d="M0 0 C0.66 0 1.32 0 2 0 C3.52150158 3.04300316 3.23899393 5.654085 3 9 C2.01 9.66 1.02 10.32 0 11 C0 7.37 0 3.74 0 0 Z " fill="#F7ACCA" transform="translate(283,391)"/>
<path d="M0 0 C0.99 0.33 1.98 0.66 3 1 C2.54625 1.391875 2.0925 1.78375 1.625 2.1875 C-0.27642919 4.30832487 -1.06204028 6.33042235 -2 9 C-3.32 8.67 -4.64 8.34 -6 8 C-4.55746343 4.63408134 -2.66735273 2.48952921 0 0 Z " fill="#6C2441" transform="translate(299,367)"/>
<path d="M0 0 C0.66 0 1.32 0 2 0 C2.33 1.65 2.66 3.3 3 5 C2.05125 4.690625 1.1025 4.38125 0.125 4.0625 C-4.50938425 2.72071729 -9.20552041 2.36657993 -14 2 C-14 1.67 -14 1.34 -14 1 C-13.07316406 1.01160156 -12.14632812 1.02320313 -11.19140625 1.03515625 C-9.39509766 1.04869141 -9.39509766 1.04869141 -7.5625 1.0625 C-5.77005859 1.07990234 -5.77005859 1.07990234 -3.94140625 1.09765625 C-1.11126659 1.33901792 -1.11126659 1.33901792 0 0 Z " fill="#C37C96" transform="translate(243,333)"/>
<path d="M0 0 C0.33 0.66 0.66 1.32 1 2 C0.67 2.66 0.34 3.32 0 4 C-0.66 4 -1.32 4 -2 4 C-2 4.66 -2 5.32 -2 6 C-6.47058824 10 -6.47058824 10 -9 10 C-9 9.34 -9 8.68 -9 8 C-8.34 8 -7.68 8 -7 8 C-6.67 6.68 -6.34 5.36 -6 4 C-5.34 4 -4.68 4 -4 4 C-3.67 3.34 -3.34 2.68 -3 2 C-2.34 2.33 -1.68 2.66 -1 3 C-0.67 2.01 -0.34 1.02 0 0 Z " fill="#60183A" transform="translate(151,318)"/>
<path d="M0 0 C0.66 0 1.32 0 2 0 C2.99 2.31 3.98 4.62 5 7 C4.01 7.33 3.02 7.66 2 8 C1.67 7.34 1.34 6.68 1 6 C0.34 7.32 -0.32 8.64 -1 10 C-1.125 2.25 -1.125 2.25 0 0 Z " fill="#E196B5" transform="translate(135,399)"/>
<path d="M0 0 C1.51400391 0.01740234 1.51400391 0.01740234 3.05859375 0.03515625 C4.07050781 0.04417969 5.08242188 0.05320312 6.125 0.0625 C7.29869141 0.07990234 7.29869141 0.07990234 8.49609375 0.09765625 C8.49609375 1.08765625 8.49609375 2.07765625 8.49609375 3.09765625 C6.87145533 3.15161103 5.24630834 3.1904282 3.62109375 3.22265625 C2.71617187 3.24585938 1.81125 3.2690625 0.87890625 3.29296875 C-1.50390625 3.09765625 -1.50390625 3.09765625 -3.50390625 1.09765625 C-2.50390625 0.09765625 -2.50390625 0.09765625 0 0 Z " fill="#C07A92" transform="translate(303.50390625,364.90234375)"/>
<path d="M0 0 C0.66 0.33 1.32 0.66 2 1 C4.04946506 1.02988803 6.07774318 0.93392724 8.125 0.83984375 C10 1 10 1 12 3 C8.07703567 4.30765478 5.13997567 4.1971417 1 4 C0.34 3.34 -0.32 2.68 -1 2 C-0.67 1.34 -0.34 0.68 0 0 Z " fill="#B9738D" transform="translate(291,406)"/>
<path d="M0 0 C2.0625 0.4375 2.0625 0.4375 4 1 C3.67 2.32 3.34 3.64 3 5 C1.68 5.33 0.36 5.66 -1 6 C-1.042721 4.33388095 -1.04063832 2.66617115 -1 1 C-0.67 0.67 -0.34 0.34 0 0 Z " fill="#F3AAC7" transform="translate(173,399)"/>
<path d="M0 0 C0 2.64 0 5.28 0 8 C-0.66 8 -1.32 8 -2 8 C-3.49524178 5.7272325 -4.78399715 3.4320057 -6 1 C-3.92446352 0.4465236 -2.15634036 0 0 0 Z " fill="#E398B8" transform="translate(254,338)"/>
<path d="M0 0 C0.99 0 1.98 0 3 0 C3 1.98 3 3.96 3 6 C1.02 6.99 1.02 6.99 -1 8 C-0.67 5.36 -0.34 2.72 0 0 Z " fill="#500726" transform="translate(309,391)"/>
<path d="M0 0 C3.63 0 7.26 0 11 0 C10.67 0.66 10.34 1.32 10 2 C7.69 1.67 5.38 1.34 3 1 C3 1.66 3 2.32 3 3 C3.66 3.33 4.32 3.66 5 4 C3.35 3.67 1.7 3.34 0 3 C0 2.01 0 1.02 0 0 Z " fill="#F5AECA" transform="translate(240,362)"/>
<path d="M0 0 C3.3 0 6.6 0 10 0 C9.67 0.99 9.34 1.98 9 3 C6.69 3 4.38 3 2 3 C2 2.34 2 1.68 2 1 C1.34 0.67 0.68 0.34 0 0 Z " fill="#F3ADC9" transform="translate(518,331)"/>
<path d="M0 0 C0.66 0.99 1.32 1.98 2 3 C1.68770276 4.33841672 1.35169068 5.67139075 1 7 C1.185625 7.825 1.37125 8.65 1.5625 9.5 C2.08444905 12.48256598 1.4345897 13.42537514 0 16 C-0.1958009 14.08416353 -0.38132214 12.16727461 -0.5625 10.25 C-0.66691406 9.18265625 -0.77132812 8.1153125 -0.87890625 7.015625 C-0.98560074 4.35858796 -0.81930395 2.50039428 0 0 Z " fill="#F4AEC7" transform="translate(157,276)"/>
<path d="M0 0 C0.66 0.66 1.32 1.32 2 2 C2.99 1.34 3.98 0.68 5 0 C4.67 1.98 4.34 3.96 4 6 C2.35 6 0.7 6 -1 6 C-0.67 4.02 -0.34 2.04 0 0 Z " fill="#691E3E" transform="translate(323,382)"/>
<path d="M0 0 C3 1 3 1 4.1875 2.6875 C5.19313465 5.54969093 5.13689641 7.98827908 5 11 C4.67 11 4.34 11 4 11 C4 9.35 4 7.7 4 6 C3.01 6 2.02 6 1 6 C0.67 4.02 0.34 2.04 0 0 Z " fill="#6F2644" transform="translate(312,367)"/>
<path d="M0 0 C0.92027197 3.47907695 1.36932981 6.38056785 1 10 C-1 12.875 -1 12.875 -3 15 C-2.22225866 9.94468132 -1.14051606 4.98283716 0 0 Z " fill="#AB617F" transform="translate(332,363)"/>
<path d="M0 0 C1.94268841 2.91403262 3.46395304 5.85808576 5 9 C3.35 9.33 1.7 9.66 0 10 C0 6.7 0 3.4 0 0 Z " fill="#D48AA9" transform="translate(506,365)"/>
<path d="M0 0 C0.33 0 0.66 0 1 0 C1.07654536 4.51617599 1.10228696 8.59085217 0 13 C-0.33 13 -0.66 13 -1 13 C-1.22151549 11.20991533 -1.42682213 9.41781838 -1.625 7.625 C-1.74101562 6.62726563 -1.85703125 5.62953125 -1.9765625 4.6015625 C-1.98429687 3.74304688 -1.99203125 2.88453125 -2 2 C-1.34 1.34 -0.68 0.68 0 0 Z " fill="#AD6282" transform="translate(311,232)"/>
<path d="M0 0 C0.33 0 0.66 0 1 0 C1.33 4.95 1.66 9.9 2 15 C1.01 14.67 0.02 14.34 -1 14 C-0.67 9.38 -0.34 4.76 0 0 Z " fill="#D78DA8" transform="translate(349,383)"/>
<path d="M0 0 C0.33 0.66 0.66 1.32 1 2 C1.99 1.67 2.98 1.34 4 1 C4 1.66 4 2.32 4 3 C4.99 3 5.98 3 7 3 C7 3.66 7 4.32 7 5 C5.68 4.67 4.36 4.34 3 4 C3 4.66 3 5.32 3 6 C2.34 6 1.68 6 1 6 C0.67 4.02 0.34 2.04 0 0 Z " fill="#590F31" transform="translate(510,369)"/>
<path d="M0 0 C0.33 0.66 0.66 1.32 1 2 C1.66 2 2.32 2 3 2 C3 2.99 3 3.98 3 5 C1.02 5 -0.96 5 -3 5 C-3 4.01 -3 3.02 -3 2 C-2.01 2 -1.02 2 0 2 C0 1.34 0 0.68 0 0 Z " fill="#E099B4" transform="translate(325,360)"/>
<path d="M0 0 C4.95 0.33 9.9 0.66 15 1 C15 1.33 15 1.66 15 2 C7.08 2.495 7.08 2.495 -1 3 C-0.67 2.01 -0.34 1.02 0 0 Z " fill="#CD87A2" transform="translate(115,211)"/>
<path d="M0 0 C0.99 0 1.98 0 3 0 C3.6875 1.8125 3.6875 1.8125 4 4 C2.5625 5.75 2.5625 5.75 1 7 C0.34 6.67 -0.32 6.34 -1 6 C-0.67 4.02 -0.34 2.04 0 0 Z " fill="#560B30" transform="translate(394,314)"/>
<path d="M0 0 C0.66 0 1.32 0 2 0 C2 2.31 2 4.62 2 7 C0.68 6.34 -0.64 5.68 -2 5 C-1.34 3.35 -0.68 1.7 0 0 Z " fill="#51082A" transform="translate(321,397)"/>
<path d="M0 0 C0.66 0.33 1.32 0.66 2 1 C1.67 2.98 1.34 4.96 1 7 C0.01 7 -0.98 7 -2 7 C-1.34 4.69 -0.68 2.38 0 0 Z " fill="#4C0423" transform="translate(294,374)"/>
<path d="M0 0 C0.99 0 1.98 0 3 0 C3 1.65 3 3.3 3 5 C2.34 5 1.68 5 1 5 C0.67 5.99 0.34 6.98 0 8 C0 5.36 0 2.72 0 0 Z " fill="#4B0221" transform="translate(313,373)"/>
<path d="M0 0 C1.32 0 2.64 0 4 0 C3.39816251 2.02045442 2.72693904 4.02111039 2 6 C1.01 6.495 1.01 6.495 0 7 C0 4.69 0 2.38 0 0 Z " fill="#E29BB8" transform="translate(203,241)"/>
<path d="M0 0 C0.99 0 1.98 0 3 0 C3 1.65 3 3.3 3 5 C1.68 5 0.36 5 -1 5 C-0.67 3.35 -0.34 1.7 0 0 Z " fill="#520827" transform="translate(323,387)"/>
</svg>
